<svg width="589" height="550" viewBox="0 0 589 550" fill="none" xmlns="http://www.w3.org/2000/svg">
<path d="M35.5242 2.80197C35.0077 0.68979 38.1296 -0.883058 39.6419 0.555022C41.4013 2.32266 42.7189 4.56961 44.8975 5.88785C57.0559 12.8835 69.334 19.7069 81.3052 27.0247C81.3127 43.5626 81.1854 60.1005 81.3726 76.631C67.6495 84.4805 53.9265 92.3225 40.3531 100.419C53.9265 108.538 67.8517 116.066 81.3277 124.342C81.3651 136.274 81.3651 148.213 81.3202 160.144C81.3651 164.039 80.7512 168.249 82.6603 171.829C84.3673 175.147 87.9758 176.675 91.0528 178.435C101.325 184.232 111.461 190.292 121.741 196.081C121.86 165.118 121.823 134.154 121.756 103.198C121.883 101.797 121.703 99.9847 123.103 99.1534C125.604 97.2584 128.501 96.0001 131.196 94.4122C142.629 87.806 154.001 81.095 165.545 74.6835C165.478 91.4836 165.65 108.284 165.613 125.091C152.107 133.33 138.166 140.858 124.623 149.037C137.882 156.916 151.268 164.586 164.677 172.218C178.505 164.564 192.093 156.482 205.816 148.632C206.22 136.244 205.898 123.848 205.981 111.452C206.086 107.647 205.472 103.737 206.4 100.007C208.054 98.3069 210.278 97.3258 212.307 96.1499C224.892 89.1992 237.155 81.6642 249.748 74.721C249.71 91.5585 249.927 108.403 249.695 125.233C236.466 133.105 223.013 140.603 209.754 148.408C208.077 149.172 207.508 150.954 207.62 152.677C207.777 178.637 207.68 204.598 207.673 230.558C207.748 234.603 207.179 238.737 208.159 242.714C209.163 246.272 212.217 248.684 215.369 250.309C226.352 256.331 236.998 262.937 247.981 268.952C248.213 253.2 247.973 237.449 248.078 221.705C250.669 220.034 253.274 218.402 255.977 216.919C268.03 210.185 279.814 202.942 291.958 196.351C292.205 212.874 291.711 229.405 292.145 245.92C306.347 254.226 320.714 262.241 334.826 270.697C320.729 279.34 306.085 287.078 292.032 295.796C292.017 311.622 291.845 327.449 292.152 343.267C305.898 351.035 319.471 359.101 333.224 366.853C347.359 359.004 361.239 350.69 375.307 342.706C389.539 350.533 403.344 359.124 417.614 366.883C431.921 358.772 446.063 350.368 460.415 342.339C460.55 359.199 460.55 376.059 460.43 392.919C448.122 400.214 435.672 407.269 423.289 414.43C419.777 416.482 418.243 420.654 418.415 424.571C418.58 437.986 418.385 451.408 418.61 464.823C432.22 472.815 445.861 480.769 459.644 488.461C474.078 480.544 488.116 471.908 502.55 463.984C502.677 480.08 502.475 496.191 502.647 512.294C516.093 504.842 529.307 496.962 542.656 489.345C543.292 477.256 542.626 465.152 543.023 453.056L544.745 453.131C544.827 465.107 544.737 477.084 544.805 489.068C552.479 493.712 560.332 498.063 568.073 502.595C573.673 505.718 579.026 509.313 584.903 511.92C585.487 503.778 585.076 495.614 585.21 487.457C585.368 482.641 584.319 477.586 586.453 473.039C587.636 484.559 586.565 496.183 587 507.74C587.157 510.122 588.407 512.227 588.976 514.519C589.066 516.601 585.907 518.151 584.522 516.391C582.785 514.519 581.34 512.287 579.049 511.021C567.594 504.565 556.244 497.914 544.842 491.36C544.692 507.194 544.932 523.027 544.752 538.861C538.261 542.838 531.643 546.606 525.032 550.388H521.222C527.061 547.063 532.804 543.565 538.711 540.352C540.537 539.183 543.248 538.09 542.896 535.446C542.896 520.795 542.881 506.137 542.873 491.487C529.412 499.089 516.034 506.842 502.715 514.691C502.43 526.585 502.632 538.487 502.61 550.388H500.282C501.427 543.453 500.626 536.405 500.858 529.416C500.866 524.87 500.858 520.324 500.768 515.785C487.3 523.477 473.854 531.221 460.497 539.101C460.453 542.861 460.423 546.621 460.43 550.388H458.319C458.776 547.138 459.127 543.827 458.716 540.562C458.656 538.592 456.567 537.79 455.182 536.839C448.796 533.311 442.507 529.604 436.173 525.986C430.364 522.75 424.831 518.99 418.714 516.339C418.288 527.686 418.595 539.041 418.512 550.388H417.352C415.967 546.276 416.618 541.917 416.558 537.678C416.483 530.547 416.768 523.409 416.341 516.286C409.393 519.477 403 523.724 396.314 527.424C390.033 531.102 383.684 534.667 377.433 538.404C384.328 542.419 391.216 546.441 398.141 550.388H394.562C374.176 539.333 354.441 527.087 334.145 515.845C333.808 527.357 334.145 538.876 334.033 550.388H331.876C332.73 545.198 332.348 539.925 332.401 534.689C332.401 528.39 332.438 522.084 332.348 515.785C318.902 523.537 305.389 531.184 292.062 539.138C292.01 542.883 291.973 546.636 292.017 550.388H290.842C289.629 546.269 290.146 541.977 290.273 537.768C304.213 529.536 318.333 521.597 332.303 513.41C332.49 481.024 332.363 448.629 332.371 416.243C345.869 408.049 359.802 400.558 373.293 392.334C360.011 384.5 346.618 376.845 333.224 369.213C319.464 377.115 305.651 384.942 292.047 393.106C291.958 420.819 292.07 448.539 291.995 476.252C292.04 479.87 291.426 483.727 293.088 487.113C293.605 488.618 295.012 490.543 293.432 491.914C292.354 492.513 291.134 492.768 289.974 493.142C288.469 490.798 286.897 488.364 284.411 486.948C273.623 480.724 262.752 474.612 252.061 468.216C250.796 467.609 249.351 466.463 247.928 467.264C244.522 468.785 241.482 471.002 238.211 472.777C228.478 478.462 218.626 483.93 208.998 489.779C222.624 497.734 236.362 505.493 249.95 513.523C250.04 525.806 249.95 538.097 250.017 550.388H247.21C247.442 547.894 247.914 545.423 247.876 542.921C247.666 533.483 247.869 524.046 247.749 514.609C234.46 506.827 221.134 499.104 207.74 491.51C207.598 505.396 207.867 519.282 207.68 533.169C207.695 535.251 207.418 537.932 209.754 538.906C216.357 542.749 223.02 546.479 229.586 550.388H226.12C219.105 547.1 212.629 542.786 205.868 539.019C205.846 523.162 205.943 507.306 205.831 491.45C191.786 499.449 177.921 507.763 163.808 515.642C163.748 503.995 163.816 492.356 163.793 480.716C163.703 476.365 164.482 471.818 162.768 467.684C162.244 465.961 160.784 463.692 162.67 462.284C165.643 461.969 168.854 462.231 171.415 460.389C182.765 453.475 194.511 447.244 205.823 440.27C206.026 407.906 205.681 375.542 205.966 343.178C219.412 335.201 233.082 327.613 246.521 319.614C241.917 315.959 236.594 313.435 231.585 310.424C223.058 305.443 214.433 300.619 205.943 295.564C205.704 286.388 205.936 277.213 205.883 268.038C205.801 261.484 206.205 254.923 205.494 248.399C192.13 255.852 178.931 263.596 165.71 271.304C165.388 287.819 165.74 304.342 165.545 320.865C151.86 313.21 138.369 305.211 124.765 297.421C122.572 295.803 120.169 297.556 118.185 298.642C106.094 305.96 93.6208 312.656 81.5672 320.041C81.6945 351.402 81.5897 382.777 81.6346 414.138C81.3651 416.25 83.4838 417.201 84.9437 418.16C97.2443 425.088 109.358 432.339 121.688 439.214C121.816 423.381 121.554 407.539 121.801 391.705C133.764 384.807 145.661 377.804 157.699 371.055C159.975 369.842 161.353 367.625 163.067 365.805C164.445 363.947 168.031 365.296 167.679 367.662C166.908 370.389 165.448 372.98 165.523 375.901C165.635 389.66 165.628 403.427 165.635 417.194C151.807 425.71 137.425 433.297 123.605 441.836C123.44 458.336 123.582 474.844 123.538 491.352C109.148 483.241 94.9235 474.844 80.594 466.62C53.6794 482.005 26.8696 497.591 0 513.058V511.268C3.54868 507.853 8.20539 506.04 12.3305 503.479C20.6407 498.565 29.1306 493.974 37.336 488.903C37.4558 473.534 37.4708 458.164 37.3734 442.795C24.9231 450.052 12.3305 457.07 0 464.523V462.583C3.47381 459.37 7.87598 457.535 11.8664 455.101C20.3488 450.112 28.9884 445.394 37.366 440.241C37.4633 410.55 37.3734 380.852 37.4633 351.162C37.628 348.248 35.8686 345.792 35.2472 343.058C36.243 339.612 40.8323 341.365 43.3104 339.695C54.0987 333.59 64.7222 327.179 75.5704 321.179C77.195 320.108 79.6656 319.105 79.3886 316.738C79.4186 301.234 79.2614 285.722 79.4934 270.217C93.1042 262.151 106.932 254.451 120.558 246.407C110.061 240.108 99.3705 234.138 88.7994 227.959C85.8421 226.139 82.4656 224.888 79.9277 222.476C78.8271 218.536 79.5458 214.365 79.4186 210.335C79.3437 198.74 79.6207 187.131 79.2988 175.536C67.7319 181.281 56.9361 188.442 45.5788 194.583C43.4901 195.819 41.1093 196.793 39.5296 198.71C38.6836 203.032 39.3424 207.489 39.2152 211.863C39.1702 239.793 39.3499 267.731 39.1253 295.661C26.1884 303.443 12.907 310.649 0 318.476V316.536C3.42889 313.585 7.57651 311.712 11.4321 309.413C19.1958 304.919 26.9595 300.425 34.7756 296.013C35.7039 295.309 37.1563 294.8 37.2162 293.452C37.6505 290.485 37.4109 287.482 37.4109 284.508C37.3435 272.367 37.4633 260.218 37.366 248.077C24.9456 255.38 12.3006 262.316 0 269.821V267.91C3.87809 264.592 8.60218 262.57 12.922 259.926C20.6482 255.357 28.5467 251.081 36.1456 246.309C29.0558 242.063 21.8611 237.996 14.6664 233.928C13.0193 232.895 11.1926 231.749 10.7434 229.682C19.9071 234.146 28.4568 239.763 37.3809 244.677C37.4483 230.491 37.3285 216.304 37.4558 202.118C37.2836 200.59 37.6729 198.538 36.1157 197.609C29.4451 193.16 21.8611 190.127 15.6022 185.034C17.5787 185.251 19.6226 185.565 21.3295 186.659C26.9445 190.045 32.5895 193.407 38.3617 196.516C46.9264 191.82 55.2666 186.726 63.7789 181.933C68.533 179.072 73.6314 176.742 77.9362 173.177C66.6912 166.196 54.9896 159.98 43.6697 153.126C41.9403 152.145 40.2334 150.984 38.2494 150.595C36.7895 150.932 35.4868 151.711 34.1991 152.445C22.8867 159.261 11.2824 165.582 0 172.436V170.54C2.67274 168.391 5.68238 166.728 8.66956 165.058C18.23 159.613 27.7231 154.048 37.2911 148.61C37.5756 133.076 37.4109 117.541 37.3809 102.007C24.9231 109.25 12.353 116.313 0 123.736V121.96C3.77328 118.807 8.27277 116.77 12.4653 114.261C20.4236 109.609 28.4643 105.108 36.3702 100.374C30.9574 97.0786 25.4397 93.9403 19.8846 90.8919C17.8856 89.8358 16.3733 88.1206 14.7937 86.5627C23.2461 89.5661 30.3734 95.2436 38.3467 99.2433C51.8377 91.6559 65.164 83.7839 78.6025 76.0992C71.4827 71.71 64.0859 67.7852 56.9211 63.4785C50.6997 59.9807 44.6355 56.2057 38.3168 52.8801C30.2162 57.2842 22.3252 62.0554 14.337 66.6543C9.56796 69.493 4.58933 72.0021 0 75.1329V73.0657C3.62355 70.4068 7.68132 68.4444 11.5295 66.1524C20.0792 61.1266 28.7413 56.3031 37.2761 51.2623C37.6579 38.1323 37.1638 25.0024 37.5232 11.8724C37.8002 8.68166 36.4226 5.76801 35.5242 2.80197ZM40.5478 5.38605C40.2034 5.52087 39.5221 5.7905 39.1777 5.92532C39.1777 20.9727 39.0729 36.0201 39.2301 51.0675C44.351 54.3257 49.719 57.1569 54.9372 60.2503C63.1426 64.8716 71.1308 69.86 79.456 74.2716C79.7704 60.2128 79.4485 46.1541 79.6432 32.0954C79.5309 30.2528 79.9651 27.7212 77.8464 26.8674C65.426 19.6845 53.0131 12.4791 40.5478 5.38605ZM123.545 100.988C123.665 116.455 123.508 131.922 123.62 147.389C137.043 139.637 150.482 131.922 163.883 124.14C163.906 108.636 164.04 93.1239 163.876 77.6196C150.377 85.3118 136.901 93.049 123.545 100.988ZM207.628 101.093C207.725 116.553 207.493 132.019 207.755 147.479C221.194 139.757 234.632 132.027 248.026 124.222C248.116 108.703 248.213 93.1763 248.018 77.6496C234.52 85.4017 220.954 93.0565 207.628 101.093ZM39.2152 101.91C39.1328 117.406 39.1178 132.903 39.2825 148.4C52.4441 156.137 65.6581 163.8 78.9394 171.334C79.1416 169.357 79.5758 167.395 79.5309 165.395C79.3662 151.98 79.7405 138.551 79.3961 125.136C65.995 117.407 52.5639 109.729 39.2152 101.91ZM123.65 150.812C123.373 164.901 123.71 178.989 123.53 193.078C123.56 194.441 123.515 195.834 123.897 197.16C124.69 197.887 125.626 198.441 126.555 198.995C139.08 205.991 151.358 213.413 163.876 220.416C163.831 204.912 164.025 189.408 163.846 173.911C150.422 166.264 137.133 158.354 123.65 150.812ZM165.68 173.904C165.41 180.06 165.605 186.225 165.628 192.389C165.59 201.691 165.425 211.002 165.657 220.312C179.163 212.837 192.4 204.89 205.816 197.272C206.115 181.768 206.033 166.256 205.861 150.752C192.4 158.354 179.074 166.196 165.68 173.904ZM81.6196 175.611C81.3277 179.169 81.2678 182.749 81.3651 186.322C81.4025 197.969 81.3352 209.616 81.3951 221.263C83.3042 222.514 85.2282 223.765 87.2272 224.881C98.7866 231.419 110.211 238.198 121.756 244.766C121.831 229.337 121.838 213.9 121.763 198.471C110.63 191.587 99.0561 185.446 87.856 178.667C85.8945 177.424 83.7459 176.525 81.6196 175.611ZM123.62 199.377C123.567 214.889 123.35 230.408 123.695 245.912C137.111 253.59 150.43 261.439 163.883 269.049C163.876 253.567 164.085 238.078 163.786 222.604C150.4 214.851 136.991 207.144 123.62 199.377ZM165.702 222.589C165.425 228.236 165.56 233.898 165.575 239.553C165.777 249.358 165.403 259.162 165.687 268.959C177.344 262.503 188.776 255.642 200.373 249.073C203.802 247.283 206.085 243.471 205.943 239.591C205.726 226.214 205.958 212.837 205.801 199.459C192.377 207.062 179.066 214.874 165.702 222.589ZM271.01 210.357C264.414 214.282 257.646 217.907 251.118 221.937C249.553 222.671 249.995 224.641 249.823 226.041C249.95 240.34 249.77 254.638 249.995 268.929C263.501 261.439 276.812 253.582 290.161 245.815C290.348 230.363 290.273 214.911 290.191 199.459C283.632 202.792 277.426 206.77 271.01 210.357ZM81.44 271.423C81.4475 286.793 81.3352 302.17 81.4849 317.539C94.0176 310.611 106.273 303.188 118.761 296.185C119.989 295.331 121.958 294.605 121.726 292.77C121.718 277.865 121.853 262.952 121.763 248.04C108.287 255.777 94.7662 263.431 81.44 271.423ZM250.923 270.719C264.302 278.494 277.688 286.246 291.119 293.931C304.505 286.216 317.989 278.651 331.218 270.674C317.929 262.855 304.58 255.118 291.149 247.53C277.651 255.103 264.294 262.93 250.923 270.719ZM123.62 248.174C123.53 263.641 123.388 279.116 123.687 294.575C137.118 302.185 150.362 310.117 163.846 317.629C163.951 302.192 164.025 286.748 163.808 271.311C150.445 263.544 137.073 255.784 123.62 248.174ZM208.886 248.744C208.616 248.961 208.069 249.403 207.8 249.627C207.703 264.57 207.703 279.528 207.875 294.47C219.487 301.353 231.293 307.93 242.89 314.835C244.455 315.832 246.259 316.318 248.018 316.858C248.063 301.698 248.093 286.531 248.063 271.371C235.089 263.686 222.025 256.136 208.886 248.744ZM249.965 272.412C249.86 285.677 250.077 298.942 249.92 312.206C249.658 315.951 251.657 319.719 254.839 321.681C266.63 328.482 278.444 335.253 290.206 342.099C290.258 326.685 290.183 311.263 290.266 295.848C288.169 294.47 286.073 293.114 283.887 291.901C272.53 285.497 261.345 278.786 249.965 272.412ZM44.7029 341.185C40.5927 343.312 38.8408 348.226 39.3574 352.645C39.5895 365.206 39.1628 377.774 39.582 390.327C51.2388 384.058 62.4912 377.062 74.0656 370.636C75.8624 369.572 77.8389 368.704 79.2988 367.183C79.718 364.614 79.441 362 79.4785 359.416C79.5084 346.668 79.4859 333.927 79.5009 321.187C67.8367 327.733 56.3521 334.602 44.7029 341.185ZM234.527 328.879C226.689 333.283 218.993 337.92 211.132 342.286C209.507 343.245 207.298 344.316 207.74 346.608C207.777 361.288 207.785 375.976 207.748 390.664C221.201 383.069 234.527 375.25 247.921 367.535C248.153 355.326 247.884 343.118 248.056 330.909C248.116 327.801 247.996 324.7 247.801 321.606C243.1 323.501 238.952 326.445 234.527 328.879ZM250.152 321.614C249.905 336.474 249.935 351.349 250.137 366.217C263.037 358.779 276.033 351.476 288.813 343.829C286.515 341.732 283.587 340.556 280.96 338.961C274.836 335.336 268.607 331.898 262.49 328.28C258.41 325.988 254.517 323.337 250.152 321.614ZM250.886 368.022C263.104 375.085 275.345 382.103 287.525 389.241C288.693 389.878 289.876 390.537 291.186 390.866C292.294 390.552 293.328 390.005 294.346 389.458C306.564 382.245 318.954 375.317 331.173 368.097C317.966 360.172 304.543 352.6 291.209 344.893C277.651 352.398 264.384 360.412 250.886 368.022ZM373.51 345.844C360.768 353.252 347.995 360.607 335.231 367.977C348.504 375.871 361.928 383.504 375.314 391.196C388.805 383.631 402.191 375.864 415.54 368.044C403.337 360.824 390.969 353.903 378.766 346.69C377.171 345.836 375.224 344.488 373.51 345.844ZM418.572 368.546C418.542 379.227 418.467 389.908 418.445 400.588C418.557 405.3 417.973 410.063 419.036 414.715C431.906 407.307 444.798 399.922 457.63 392.462C459.135 391.788 458.686 389.87 458.873 388.559C458.783 374.134 458.873 359.701 458.82 345.267C445.367 352.96 431.951 360.727 418.572 368.546ZM39.5146 392.964C39.32 408.356 39.5371 423.748 39.4173 439.147C52.8259 431.53 66.2495 423.912 79.456 415.958C79.4036 400.596 79.486 385.234 79.4785 369.872C66.0998 377.474 52.8184 385.234 39.5146 392.964ZM210.69 391.233C209.41 392.02 207.575 392.754 207.837 394.596C207.733 409.487 207.897 424.384 207.785 439.274C219.943 432.496 231.877 425.313 244.005 418.475C245.263 417.733 246.558 417.029 247.636 416.033C248.146 414.19 248.041 412.258 248.048 410.37C247.794 396.866 248.168 383.354 247.899 369.849C235.448 376.898 223.17 384.238 210.69 391.233ZM250.077 369.805C249.927 385.264 250.077 400.731 250.115 416.198C263.463 423.92 276.782 431.709 290.206 439.304C290.138 424.399 290.258 409.487 290.161 394.589C290.34 392.754 288.461 392.005 287.211 391.181C274.768 384.163 262.475 376.898 250.077 369.805ZM377.373 392.454C389.187 399.308 401.068 406.056 412.83 412.999C414.05 413.404 415.323 414.213 416.641 414.011C416.663 399.248 416.685 384.485 416.633 369.715C403.494 377.205 390.347 384.695 377.373 392.454ZM157.16 373.55C146.581 379.736 135.928 385.803 125.334 391.952C123.283 392.724 123.575 395.046 123.515 396.821C123.567 410.999 123.493 425.171 123.56 439.349C136.939 431.522 150.415 423.845 163.831 416.078C163.936 400.836 164.078 385.586 163.756 370.344C161.457 371.205 159.196 372.171 157.16 373.55ZM334.137 417.336C333.913 432.773 333.995 448.217 334.093 463.654C347.598 456.014 361.06 448.277 374.423 440.383C374.296 424.946 374.58 409.509 374.408 394.065C360.94 401.742 347.561 409.584 334.137 417.336ZM376.43 394.184C376.205 406.55 376.422 418.916 376.422 431.29C376.467 434.278 376.168 437.297 376.609 440.27C378.032 441.671 379.874 442.54 381.588 443.536C393.275 450.172 404.782 457.13 416.581 463.579C416.633 450.067 416.618 436.555 416.656 423.043C416.588 419.119 414.02 415.441 410.546 413.718C399.092 407.352 387.907 400.506 376.43 394.184ZM39.5596 441.634C39.4023 456.966 39.4622 472.298 39.5296 487.63C52.9382 480.305 66.0773 472.47 79.2988 464.808C79.4934 449.408 79.3886 434.016 79.3587 418.624C66.0549 426.219 52.7735 433.874 39.5596 441.634ZM81.6496 418.564C81.6271 433.979 81.6047 449.401 81.6795 464.823C94.9983 472.567 108.34 480.282 121.711 487.937C121.598 474.305 121.643 460.681 121.748 447.056C121.673 444.727 122.407 441.581 119.682 440.51C106.977 433.245 94.347 425.837 81.6496 418.564ZM210.675 439.941C209.784 440.465 208.871 440.997 208.122 441.738C207.777 442.959 207.815 444.24 207.777 445.513C207.882 459.587 207.867 473.653 207.852 487.727C210.622 486.327 213.363 484.858 216.028 483.263C226.591 477.054 237.305 471.107 247.816 464.815C247.973 449.408 247.996 433.994 247.914 418.587C235.396 425.523 223.155 432.938 210.675 439.941ZM250.1 418.527C250.107 433.949 250.032 449.378 250.13 464.8C263.179 472.492 276.348 479.982 289.442 487.6C289.861 486.094 290.288 484.559 290.228 482.986C290.101 469.744 290.281 456.501 290.161 443.266C290.37 441.424 288.431 440.682 287.189 439.843C274.753 432.87 262.513 425.538 250.1 418.527ZM335.253 465.347C347.628 472.68 360.206 479.66 372.559 487.03C373.996 487.967 375.771 488.573 377.321 487.465C390.07 480.11 402.813 472.725 415.577 465.399C402.229 457.625 388.82 449.955 375.456 442.203C361.973 449.783 348.684 457.685 335.253 465.347ZM170.778 462.965C167.784 464.815 165.096 467.983 165.455 471.728C165.568 485.255 165.403 498.782 165.545 512.309C177.449 505.516 189.27 498.58 201.182 491.794C202.709 490.895 204.371 490.124 205.606 488.828C205.906 487.383 205.876 485.9 205.898 484.447C205.831 470.545 205.936 456.644 205.846 442.742C194.144 449.461 182.517 456.307 170.778 462.965ZM334.07 467.085C334.063 482.514 333.898 497.951 334.182 513.388C347.494 521.192 360.902 528.81 374.221 536.592C374.356 521.11 374.528 505.621 374.206 490.139C360.782 482.537 347.524 474.635 334.07 467.085ZM377.38 489.667C388.835 496.49 400.499 502.954 411.954 509.763C413.361 510.661 415.008 511.021 416.581 511.538C416.566 496.753 416.596 481.967 416.603 467.182C403.382 474.402 390.512 482.267 377.38 489.667ZM418.587 467.152C418.452 480.409 418.617 493.667 418.482 506.924C418.138 511.021 420.691 514.953 424.239 516.841C435.806 523.379 447.209 530.203 458.798 536.704C458.641 521.335 459.067 505.943 458.633 490.596C455.796 488.102 452.165 486.731 449.013 484.679C438.883 478.807 428.739 472.972 418.587 467.152ZM460.467 490.453C460.4 505.883 460.438 521.32 460.453 536.749C473.884 529.027 487.315 521.282 500.723 513.515C500.963 498.041 500.881 482.559 500.776 467.085C487.307 474.814 473.824 482.529 460.467 490.453ZM376.534 491.629C376.385 506.564 376.482 521.507 376.534 536.442C382.434 533.274 388.176 529.821 393.978 526.48C400.934 522.361 408.113 518.623 414.889 514.204C411.153 511.028 406.653 509.021 402.483 506.52C393.829 501.561 385.271 496.438 376.534 491.629Z" fill="#EF95BA" fill-opacity="0.3"/>
<path d="M49.8387 530.51C60.4474 524.525 70.8313 518.151 81.5672 512.399C81.7394 525.057 81.5747 537.723 81.6047 550.388H79.9127C78.9319 545.19 79.4186 539.895 79.3512 534.644C79.3063 528.42 79.3587 522.204 79.3587 515.979C68.3458 522.159 57.5276 528.69 46.4997 534.839C44.381 536.053 42.2173 537.446 40.9895 539.64C38.9606 542.831 39.5521 546.793 39.4997 550.388H36.8494C37.5082 547.085 38.0248 543.408 36.2579 540.352C34.1617 536.105 29.3852 534.555 25.6044 532.24C17.0995 527.214 8.43747 522.466 0 517.343V514.481C3.50376 517.35 7.62891 519.29 11.4995 521.604C17.8033 525.327 24.2418 528.847 30.5007 532.66C32.8515 534.023 35.3371 535.521 38.1521 535.476C42.6141 535.723 46.1328 532.495 49.8387 530.51Z" fill="#EF95BA" fill-opacity="0.3"/>
</svg>
