<svg width="589" height="550" viewBox="0 0 589 550" fill="none" xmlns="http://www.w3.org/2000/svg">
<path d="M553.476 547.198C553.992 549.31 550.87 550.883 549.358 549.445C547.599 547.677 546.281 545.43 544.102 544.112C531.944 537.116 519.666 530.293 507.695 522.975C507.687 506.437 507.815 489.899 507.627 473.369C521.35 465.52 535.074 457.678 548.647 449.581C535.074 441.462 521.148 433.934 507.672 425.658C507.635 413.726 507.635 401.787 507.68 389.856C507.635 385.961 508.249 381.751 506.34 378.171C504.633 374.853 501.024 373.325 497.947 371.565C487.675 365.768 477.539 359.708 467.259 353.919C467.14 384.882 467.177 415.846 467.244 446.802C467.117 448.203 467.297 450.015 465.897 450.847C463.396 452.742 460.499 454 457.804 455.588C446.371 462.194 434.999 468.905 423.455 475.316C423.522 458.516 423.35 441.716 423.387 424.909C436.893 416.67 450.834 409.142 464.377 400.963C451.118 393.084 437.732 385.414 424.323 377.782C410.495 385.436 396.907 393.518 383.184 401.368C382.78 413.756 383.102 426.152 383.019 438.548C382.914 442.353 383.528 446.263 382.6 449.993C380.946 451.693 378.722 452.674 376.693 453.85C364.108 460.801 351.845 468.336 339.252 475.279C339.29 458.442 339.073 441.597 339.305 424.767C352.534 416.895 365.987 409.397 379.246 401.592C380.923 400.828 381.492 399.046 381.38 397.323C381.223 371.363 381.32 345.402 381.327 319.442C381.252 315.397 381.821 311.263 380.841 307.286C379.837 303.728 376.783 301.316 373.631 299.691C362.648 293.669 352.002 287.063 341.019 281.048C340.787 296.8 341.027 312.551 340.922 328.295C338.331 329.966 335.726 331.598 333.023 333.081C320.97 339.815 309.186 347.058 297.042 353.649C296.795 337.126 297.289 320.595 296.855 304.08C282.653 295.774 268.286 287.759 254.174 279.303C268.271 270.66 282.915 262.922 296.968 254.204C296.983 238.378 297.155 222.551 296.848 206.733C283.102 198.965 269.529 190.899 255.776 183.147C241.641 190.996 227.761 199.31 213.693 207.294C199.461 199.467 185.656 190.876 171.386 183.117C157.079 191.228 142.937 199.632 128.585 207.661C128.45 190.801 128.45 173.941 128.57 157.081C140.878 149.786 153.328 142.731 165.711 135.57C169.223 133.518 170.757 129.346 170.585 125.429C170.42 112.014 170.615 98.5919 170.39 85.1773C156.78 77.1854 143.139 69.2311 129.356 61.5389C114.922 69.4558 100.884 78.0918 86.45 86.0162C86.3227 69.9202 86.5249 53.8092 86.3527 37.7057C72.9066 45.1583 59.6926 53.0377 46.3439 60.6551C45.7075 72.7439 46.3738 84.8478 45.9771 96.9441L44.2551 96.8692C44.1727 84.8927 44.2626 72.9162 44.1952 60.9322C36.5214 56.2884 28.6679 51.9367 20.9266 47.4052C15.3266 44.2819 9.97359 40.6868 4.09656 38.0802C3.5126 46.2219 3.92437 54.386 3.78961 62.5426C3.63239 67.3586 4.68051 72.4144 2.54681 76.9608C1.36392 65.4412 2.43453 53.8167 2.00031 42.2597C1.84309 39.8779 0.59279 37.7731 0.0238037 35.4812C-0.0660363 33.399 3.09336 31.8486 4.47839 33.6087C6.2153 35.4812 7.66025 37.7132 9.95117 38.979C21.4058 45.4354 32.7556 52.0865 44.1578 58.6402C44.3075 42.8064 44.0679 26.9726 44.2476 11.1387C50.7386 7.16154 57.3568 3.39408 63.9675 -0.388367H67.7782C61.9386 2.93719 56.1963 6.43498 50.2894 9.64819C48.4626 10.8166 45.7524 11.9102 46.1042 14.5541C46.1042 29.2046 46.1193 43.8625 46.1268 58.513C59.5878 50.9106 72.9665 43.1585 86.2853 35.309C86.5698 23.4148 86.3676 11.5132 86.39 -0.388367H88.7184C87.573 6.54737 88.374 13.5954 88.1419 20.5836C88.1345 25.13 88.1419 29.6765 88.2318 34.2154C101.7 26.5232 115.146 18.7785 128.503 10.899C128.547 7.13907 128.577 3.3791 128.57 -0.388367H130.681C130.224 2.86229 129.873 6.17284 130.284 9.43848C130.344 11.4083 132.433 12.2098 133.818 13.161C140.204 16.6888 146.493 20.3964 152.827 24.0141C158.636 27.2498 164.169 31.0097 170.286 33.6612C170.712 22.3138 170.405 10.959 170.488 -0.388367H171.648C173.033 3.72364 172.382 8.08274 172.442 12.3221C172.517 19.4526 172.232 26.5906 172.659 33.7136C179.607 30.5228 186 26.276 192.686 22.5759C198.967 18.8983 205.316 15.3332 211.567 11.5956C204.672 7.581 197.784 3.55886 190.859 -0.388367H194.438C214.824 10.6669 234.559 22.913 254.855 34.1555C255.192 22.6433 254.855 11.1238 254.967 -0.388367H257.124C256.27 4.8022 256.652 10.0752 256.599 15.3107C256.599 21.6098 256.562 27.9163 256.652 34.2154C270.098 26.4632 283.611 18.816 296.938 10.8616C296.99 7.11663 297.027 3.36412 296.983 -0.388367H298.158C299.371 3.73113 298.854 8.02286 298.727 12.2322C284.787 20.4637 270.667 28.4032 256.697 36.5897C256.51 68.9765 256.637 101.371 256.629 133.757C243.131 141.951 229.198 149.442 215.707 157.666C228.989 165.5 242.382 173.155 255.776 180.787C269.536 172.885 283.349 165.058 296.953 156.894C297.042 129.181 296.93 101.461 297.005 73.7476C296.96 70.1299 297.574 66.2726 295.912 62.8871C295.395 61.3816 293.988 59.4567 295.568 58.086C296.646 57.4868 297.866 57.2321 299.026 56.8576C300.531 59.2019 302.103 61.6363 304.589 63.0519C315.377 69.2761 326.248 75.3879 336.939 81.7844C338.204 82.3911 339.649 83.537 341.072 82.7356C344.478 81.2151 347.518 78.9981 350.789 77.223C360.522 71.5381 370.374 66.0703 380.002 60.2206C366.376 52.2662 352.638 44.5066 339.05 36.4774C338.96 24.1938 339.05 11.9027 338.983 -0.388367H341.79C341.558 2.1058 341.086 4.57744 341.124 7.0791C341.334 16.5165 341.131 25.954 341.251 35.3914C354.54 43.1735 367.866 50.8956 381.26 58.4904C381.402 44.604 381.133 30.7176 381.32 16.8311C381.305 14.7489 381.582 12.0675 379.246 11.0938C372.643 7.25144 365.98 3.52141 359.414 -0.388367H362.88C369.895 2.89974 376.371 7.21398 383.132 10.9814C383.154 26.8378 383.057 42.6941 383.169 58.5504C397.214 50.5511 411.079 42.2372 425.192 34.3577C425.252 46.0047 425.184 57.6441 425.207 69.2836C425.297 73.6353 424.518 78.1817 426.232 82.3161C426.756 84.0388 428.216 86.3083 426.33 87.7164C423.357 88.031 420.146 87.7688 417.585 89.6114C406.235 96.5246 394.489 102.756 383.177 109.73C382.974 142.094 383.319 174.458 383.034 206.822C369.588 214.799 355.918 222.387 342.479 230.386C347.083 234.041 352.406 236.565 357.415 239.576C365.942 244.557 374.567 249.381 383.057 254.436C383.296 263.612 383.064 272.787 383.117 281.962C383.199 288.516 382.795 295.077 383.506 301.601C396.87 294.148 410.069 286.404 423.29 278.696C423.612 262.181 423.26 245.658 423.455 229.135C437.14 236.79 450.631 244.789 464.235 252.579C466.428 254.197 468.831 252.444 470.815 251.358C482.906 244.04 495.379 237.344 507.433 229.959C507.305 198.598 507.41 167.223 507.365 135.862C507.635 133.75 505.516 132.799 504.056 131.84C491.756 124.912 479.642 117.661 467.312 110.786C467.184 126.619 467.446 142.461 467.199 158.295C455.236 165.193 443.339 172.196 431.301 178.945C429.025 180.158 427.647 182.375 425.933 184.195C424.555 186.053 420.969 184.704 421.321 182.338C422.092 179.611 423.552 177.02 423.477 174.099C423.365 160.34 423.372 146.573 423.365 132.806C437.193 124.29 451.575 116.703 465.395 108.164C465.56 91.6637 465.418 75.1557 465.462 58.6477C479.852 66.7594 494.077 75.1557 508.406 83.3797C535.321 67.9953 562.13 52.4086 589 36.9418V38.7318C585.451 42.1473 580.795 43.9599 576.669 46.5215C568.359 51.4349 559.869 56.0263 551.664 61.097C551.544 76.4665 551.529 91.8359 551.627 107.205C564.077 99.9476 576.669 92.9295 589 85.477L589 87.4168C585.526 90.63 581.124 92.4651 577.134 94.8993C568.651 99.8877 560.012 104.606 551.634 109.759C551.537 139.45 551.627 169.148 551.537 198.838C551.372 201.752 553.131 204.208 553.753 206.942C552.757 210.388 548.168 208.635 545.69 210.305C534.901 216.41 524.278 222.821 513.43 228.821C511.805 229.892 509.334 230.895 509.611 233.262C509.581 248.766 509.739 264.278 509.507 279.783C495.896 287.849 482.068 295.549 468.442 303.593C478.939 309.892 489.629 315.862 500.201 322.041C503.158 323.861 506.534 325.112 509.072 327.524C510.173 331.464 509.454 335.635 509.581 339.665C509.656 351.26 509.379 362.869 509.701 374.464C521.268 368.719 532.064 361.558 543.421 355.417C545.51 354.181 547.891 353.207 549.47 351.29C550.316 346.968 549.658 342.511 549.785 338.137C549.83 310.207 549.65 282.269 549.875 254.339C562.812 246.557 576.093 239.351 589 231.524V233.464C585.571 236.415 581.423 238.288 577.568 240.587C569.804 245.081 562.041 249.575 554.224 253.987C553.296 254.691 551.844 255.2 551.784 256.548C551.35 259.515 551.589 262.518 551.589 265.492C551.656 277.633 551.537 289.782 551.634 301.923C564.054 294.62 576.699 287.684 589 280.179V282.09C585.122 285.408 580.398 287.43 576.078 290.074C568.352 294.643 560.453 298.919 552.854 303.691C559.944 307.937 567.139 312.004 574.334 316.072C575.981 317.105 577.807 318.251 578.257 320.318C569.093 315.854 560.543 310.237 551.619 305.323C551.552 319.509 551.671 333.696 551.544 347.882C551.716 349.41 551.327 351.462 552.884 352.391C559.555 356.84 567.139 359.873 573.398 364.966C571.421 364.749 569.377 364.435 567.67 363.341C562.055 359.955 556.411 356.593 550.638 353.484C542.074 358.18 533.733 363.274 525.221 368.067C520.467 370.928 515.369 373.258 511.064 376.823C522.309 383.804 534.01 390.02 545.33 396.874C547.06 397.855 548.767 399.016 550.751 399.405C552.211 399.068 553.513 398.289 554.801 397.555C566.113 390.739 577.718 384.418 589 377.564V379.46C586.327 381.609 583.318 383.272 580.33 384.942C570.77 390.387 561.277 395.952 551.709 401.39C551.424 416.924 551.589 432.459 551.619 447.993C564.077 440.75 576.647 433.687 589 426.264V428.04C585.227 431.193 580.727 433.23 576.535 435.739C568.576 440.391 560.536 444.892 552.63 449.626C558.043 452.921 563.56 456.06 569.115 459.108C571.114 460.164 572.627 461.879 574.206 463.437C565.754 460.434 558.627 454.756 550.653 450.757C537.162 458.344 523.836 466.216 510.397 473.901C517.517 478.29 524.914 482.215 532.079 486.522C538.3 490.019 544.364 493.794 550.683 497.12C558.784 492.716 566.675 487.945 574.663 483.346C579.432 480.507 584.411 477.998 589 474.867V476.934C585.376 479.593 581.319 481.556 577.471 483.848C568.921 488.873 560.259 493.697 551.724 498.738C551.342 511.868 551.836 524.998 551.477 538.128C551.2 541.318 552.577 544.232 553.476 547.198ZM548.452 544.614C548.797 544.479 549.478 544.209 549.822 544.075C549.822 529.027 549.927 513.98 549.77 498.932C544.649 495.674 539.281 492.843 534.063 489.75C525.857 485.128 517.869 480.14 509.544 475.728C509.23 489.787 509.551 503.846 509.357 517.905C509.469 519.747 509.035 522.279 511.154 523.133C523.574 530.316 535.987 537.521 548.452 544.614ZM465.455 449.012C465.335 433.545 465.492 418.078 465.38 402.611C451.957 410.363 438.518 418.078 425.117 425.86C425.094 441.364 424.96 456.876 425.124 472.38C438.623 464.688 452.099 456.951 465.455 449.012ZM381.372 448.907C381.275 433.447 381.507 417.981 381.245 402.521C367.806 410.243 354.368 417.973 340.974 425.778C340.884 441.297 340.787 456.824 340.982 472.35C354.48 464.598 368.046 456.944 381.372 448.907ZM549.785 448.09C549.867 432.594 549.882 417.097 549.717 401.6C536.556 393.863 523.342 386.2 510.061 378.666C509.858 380.643 509.424 382.605 509.469 384.605C509.634 398.02 509.26 411.449 509.604 424.864C523.005 432.593 536.436 440.271 549.785 448.09ZM465.35 399.188C465.627 385.099 465.29 371.011 465.47 356.922C465.44 355.559 465.485 354.166 465.103 352.84C464.31 352.113 463.374 351.559 462.445 351.005C449.92 344.009 437.642 336.587 425.124 329.584C425.169 345.088 424.975 360.592 425.154 376.089C438.578 383.736 451.867 391.646 465.35 399.188ZM423.32 376.096C423.59 369.94 423.395 363.775 423.372 357.611C423.41 348.309 423.575 338.998 423.343 329.688C409.837 337.163 396.6 345.11 383.184 352.728C382.885 368.232 382.967 383.744 383.139 399.248C396.6 391.646 409.926 383.804 423.32 376.096ZM507.38 374.389C507.672 370.831 507.732 367.251 507.635 363.678C507.597 352.031 507.665 340.384 507.605 328.737C505.696 327.486 503.772 326.235 501.773 325.119C490.213 318.581 478.789 311.802 467.244 305.234C467.169 320.663 467.162 336.1 467.237 351.529C478.37 358.413 489.944 364.554 501.144 371.333C503.105 372.576 505.254 373.475 507.38 374.389ZM465.38 350.623C465.433 335.111 465.65 319.592 465.305 304.088C451.889 296.41 438.57 288.561 425.117 280.951C425.124 296.433 424.915 311.922 425.214 327.396C438.6 335.149 452.009 342.856 465.38 350.623ZM423.298 327.411C423.575 321.764 423.44 316.102 423.425 310.447C423.223 300.642 423.597 290.838 423.313 281.041C411.656 287.497 400.224 294.358 388.627 300.927C385.198 302.717 382.915 306.529 383.057 310.409C383.274 323.786 383.042 337.163 383.199 350.541C396.623 342.938 409.934 335.126 423.298 327.411ZM317.99 339.643C324.586 335.718 331.354 332.093 337.882 328.063C339.447 327.329 339.005 325.359 339.177 323.959C339.05 309.66 339.23 295.362 339.005 281.071C325.499 288.561 312.188 296.418 298.839 304.185C298.652 319.637 298.727 335.089 298.809 350.541C305.368 347.208 311.574 343.23 317.99 339.643ZM507.56 278.577C507.553 263.207 507.665 247.83 507.515 232.461C494.982 239.389 482.727 246.812 470.239 253.815C469.011 254.669 467.042 255.395 467.274 257.23C467.282 272.135 467.147 287.048 467.237 301.96C480.713 294.223 494.234 286.569 507.56 278.577ZM338.077 279.281C324.698 271.506 311.312 263.754 297.881 256.069C284.495 263.784 271.011 271.349 257.782 279.326C271.071 287.145 284.42 294.882 297.851 302.47C311.349 294.897 324.706 287.07 338.077 279.281ZM465.38 301.826C465.47 286.359 465.612 270.884 465.313 255.425C451.882 247.815 438.638 239.883 425.154 232.371C425.049 247.808 424.975 263.252 425.192 278.689C438.555 286.456 451.927 294.216 465.38 301.826ZM380.114 301.256C380.384 301.039 380.931 300.597 381.2 300.373C381.297 285.43 381.297 270.472 381.125 255.53C369.513 248.647 357.707 242.07 346.11 235.165C344.545 234.168 342.741 233.682 340.982 233.142C340.937 248.302 340.907 263.469 340.937 278.629C353.911 286.314 366.975 293.864 380.114 301.256ZM339.035 277.588C339.14 264.323 338.923 251.058 339.08 237.794C339.342 234.049 337.343 230.281 334.161 228.319C322.37 221.518 310.556 214.747 298.794 207.901C298.742 223.315 298.817 238.737 298.734 254.152C300.831 255.53 302.927 256.886 305.113 258.099C316.47 264.503 327.655 271.214 339.035 277.588ZM544.297 208.815C548.407 206.688 550.159 201.774 549.643 197.355C549.411 184.794 549.837 172.226 549.418 159.673C537.761 165.942 526.509 172.938 514.934 179.364C513.138 180.428 511.161 181.296 509.701 182.817C509.282 185.386 509.559 188 509.522 190.584C509.492 203.332 509.514 216.073 509.499 228.813C521.163 222.267 532.648 215.398 544.297 208.815ZM354.473 221.121C362.311 216.717 370.007 212.08 377.868 207.714C379.493 206.755 381.702 205.684 381.26 203.392C381.223 188.712 381.215 174.024 381.252 159.336C367.799 166.931 354.473 174.75 341.079 182.465C340.847 194.674 341.116 206.882 340.944 219.091C340.884 222.199 341.004 225.3 341.199 228.394C345.9 226.499 350.048 223.555 354.473 221.121ZM338.848 228.386C339.095 213.526 339.065 198.651 338.863 183.783C325.963 191.221 312.967 198.524 300.187 206.171C302.485 208.268 305.413 209.444 308.04 211.039C314.164 214.664 320.393 218.102 326.51 221.72C330.59 224.012 334.483 226.663 338.848 228.386ZM338.114 181.978C325.896 174.915 313.655 167.897 301.475 160.759C300.307 160.122 299.124 159.463 297.814 159.134C296.706 159.448 295.672 159.995 294.654 160.542C282.436 167.755 270.046 174.683 257.827 181.903C271.034 189.828 284.457 197.4 297.791 205.107C311.349 197.602 324.616 189.588 338.114 181.978ZM215.49 204.156C228.232 196.748 241.005 189.393 253.769 182.023C240.496 174.129 227.072 166.496 213.686 158.804C200.195 166.369 186.809 174.136 173.46 181.956C185.663 189.176 198.031 196.097 210.234 203.31C211.829 204.164 213.776 205.512 215.49 204.156ZM170.428 181.454C170.458 170.773 170.533 160.092 170.555 149.412C170.443 144.7 171.027 139.937 169.964 135.285C157.094 142.693 144.202 150.078 131.37 157.538C129.865 158.212 130.314 160.13 130.127 161.441C130.217 175.866 130.127 190.299 130.18 204.733C143.633 197.04 157.049 189.273 170.428 181.454ZM549.485 157.036C549.68 141.644 549.463 126.252 549.583 110.853C536.174 118.47 522.75 126.088 509.544 134.042C509.596 149.404 509.514 164.766 509.522 180.128C522.9 172.526 536.182 164.766 549.485 157.036ZM378.31 158.767C379.59 157.98 381.425 157.246 381.163 155.404C381.267 140.513 381.103 125.616 381.215 110.726C369.057 117.504 357.123 124.687 344.995 131.525C343.737 132.267 342.442 132.971 341.364 133.967C340.854 135.81 340.959 137.742 340.952 139.63C341.206 153.134 340.832 166.646 341.101 180.151C353.552 173.102 365.83 165.762 378.31 158.767ZM338.923 180.195C339.073 164.736 338.923 149.269 338.885 133.802C325.537 126.08 312.218 118.291 298.794 110.696C298.862 125.601 298.742 140.513 298.839 155.411C298.66 157.246 300.539 157.995 301.789 158.819C314.232 165.837 326.525 173.102 338.923 180.195ZM211.627 157.546C199.813 150.692 187.932 143.944 176.17 137.001C174.95 136.596 173.677 135.787 172.359 135.989C172.337 150.752 172.315 165.515 172.367 180.285C185.506 172.795 198.653 165.305 211.627 157.546ZM431.84 176.45C442.419 170.264 453.072 164.197 463.666 158.048C465.717 157.276 465.425 154.954 465.485 153.179C465.433 139.001 465.507 124.829 465.44 110.651C452.061 118.478 438.585 126.155 425.169 133.922C425.064 149.164 424.922 164.414 425.244 179.656C427.543 178.795 429.804 177.829 431.84 176.45ZM254.863 132.664C255.087 117.227 255.005 101.783 254.907 86.3457C241.402 93.9855 227.94 101.723 214.577 109.617C214.704 125.054 214.42 140.491 214.592 155.935C228.06 148.258 241.439 140.416 254.863 132.664ZM212.57 155.816C212.795 143.45 212.578 131.084 212.578 118.71C212.533 115.722 212.832 112.703 212.391 109.73C210.968 108.329 209.126 107.46 207.412 106.464C195.725 99.8277 184.218 92.8696 172.419 86.4207C172.367 99.9326 172.382 113.445 172.344 126.957C172.412 130.881 174.98 134.559 178.454 136.282C189.908 142.648 201.093 149.494 212.57 155.816ZM549.44 108.366C549.598 93.0343 549.538 77.7023 549.47 62.3703C536.062 69.6955 522.923 77.53 509.701 85.1923C509.507 100.592 509.611 115.984 509.641 131.376C522.945 123.781 536.226 116.126 549.44 108.366ZM507.35 131.436C507.373 116.021 507.395 100.599 507.32 85.1773C494.002 77.4326 480.66 69.718 467.289 62.0632C467.402 75.695 467.357 89.3193 467.252 102.944C467.327 105.273 466.593 108.419 469.318 109.49C482.023 116.755 494.653 124.163 507.35 131.436ZM378.325 110.059C379.216 109.535 380.129 109.003 380.878 108.262C381.223 107.041 381.185 105.76 381.223 104.487C381.118 90.4129 381.133 76.3466 381.148 62.2729C378.378 63.6735 375.637 65.1415 372.972 66.7369C362.409 72.9461 351.695 78.8932 341.184 85.1848C341.027 100.592 341.004 116.006 341.086 131.413C353.604 124.477 365.845 117.062 378.325 110.059ZM338.9 131.473C338.893 116.051 338.968 100.622 338.87 85.1998C325.821 77.5076 312.652 70.0176 299.558 62.4002C299.139 63.9057 298.712 65.4412 298.772 67.0141C298.899 80.2564 298.719 93.4987 298.839 106.734C298.63 108.576 300.569 109.318 301.811 110.157C314.247 117.13 326.487 124.462 338.9 131.473ZM253.747 84.653C241.372 77.3203 228.794 70.3397 216.441 62.9695C215.004 62.0333 213.229 61.4265 211.679 62.5351C198.93 69.8902 186.187 77.2754 173.423 84.6006C186.771 92.3752 200.18 100.045 213.544 107.797C227.027 100.217 240.316 92.3153 253.747 84.653ZM418.222 87.0348C421.216 85.1848 423.904 82.0166 423.545 78.2716C423.432 64.7447 423.597 51.2177 423.455 37.6908C411.551 44.4842 399.73 51.4199 387.818 58.2058C386.291 59.1046 384.629 59.8761 383.394 61.1719C383.094 62.6175 383.124 64.1004 383.102 65.5535C383.169 79.4549 383.064 93.3563 383.154 107.258C394.856 100.539 406.483 93.6934 418.222 87.0348ZM254.93 82.9154C254.937 67.486 255.102 52.0491 254.818 36.6122C241.506 28.8077 228.098 21.1903 214.779 13.4081C214.644 28.89 214.472 44.3793 214.794 59.8611C228.218 67.4635 241.476 75.3655 254.93 82.9154ZM211.62 60.333C200.165 53.5096 188.501 47.0457 177.046 40.2373C175.639 39.3385 173.992 38.979 172.419 38.4622C172.434 53.2474 172.404 68.0327 172.397 82.818C185.618 75.5976 198.488 67.7332 211.62 60.333ZM170.413 82.8479C170.548 69.5906 170.383 56.3334 170.518 43.0761C170.862 38.9791 168.309 35.0468 164.761 33.1593C153.194 26.6205 141.791 19.7972 130.202 13.2958C130.359 28.6653 129.933 44.0573 130.367 59.4043C133.204 61.8984 136.835 63.2691 139.987 65.3213C150.117 71.1935 160.261 77.0282 170.413 82.8479ZM128.533 59.5465C128.6 44.1171 128.562 28.6803 128.547 13.2509C115.116 20.9731 101.685 28.7177 88.2767 36.4849C88.0371 51.9592 88.1195 67.441 88.2243 82.9154C101.693 75.1857 115.176 67.471 128.533 59.5465ZM212.466 58.3706C212.615 43.4356 212.518 28.493 212.466 13.558C206.566 16.7263 200.824 20.1791 195.022 23.5197C188.066 27.6392 180.887 31.3767 174.111 35.7958C177.847 38.9715 182.347 40.9788 186.517 43.4805C195.171 48.4389 203.729 53.5621 212.466 58.3706Z" fill="#EF95BA" fill-opacity="0.3"/>
<path d="M539.161 19.4901C528.553 25.4746 518.169 31.8486 507.433 37.6009C507.261 24.9428 507.425 12.2772 507.395 -0.388367H509.087C510.068 4.80969 509.581 10.1052 509.649 15.3557C509.694 21.5798 509.641 27.7965 509.641 34.0207C520.654 27.8414 531.472 21.3101 542.5 15.1608C544.619 13.9474 546.783 12.5543 548.01 10.3597C550.039 7.169 549.448 3.20683 549.5 -0.388367H552.151C551.492 2.91472 550.975 6.59227 552.742 9.64819C554.838 13.895 559.615 15.4455 563.396 17.7599C571.9 22.7857 580.563 27.5343 589 32.6575V35.5187C585.496 32.65 581.371 30.7101 577.5 28.3957C571.197 24.6732 564.758 21.1529 558.499 17.3405C556.149 15.9773 553.663 14.4792 550.848 14.5242C546.386 14.277 542.867 17.5053 539.161 19.4901Z" fill="#EF95BA" fill-opacity="0.3"/>
</svg>
