<svg width="1512" height="982" viewBox="0 0 1512 982" fill="none" xmlns="http://www.w3.org/2000/svg">
<path d="M35.5242 434.802C35.0077 432.69 38.1296 431.117 39.6419 432.555C41.4013 434.323 42.7189 436.57 44.8975 437.888C57.0559 444.884 69.334 451.707 81.3052 459.025C81.3127 475.563 81.1854 492.101 81.3726 508.631C67.6495 516.48 53.9265 524.322 40.3531 532.419C53.9265 540.538 67.8517 548.066 81.3277 556.342C81.3651 568.274 81.3651 580.213 81.3202 592.144C81.3651 596.039 80.7512 600.249 82.6603 603.829C84.3673 607.147 87.9758 608.675 91.0528 610.435C101.325 616.232 111.461 622.292 121.741 628.081C121.86 597.118 121.823 566.154 121.756 535.198C121.883 533.797 121.703 531.985 123.103 531.153C125.604 529.258 128.501 528 131.196 526.412C142.629 519.806 154.001 513.095 165.545 506.684C165.478 523.484 165.65 540.284 165.613 557.091C152.107 565.33 138.166 572.858 124.623 581.037C137.882 588.916 151.268 596.586 164.677 604.218C178.505 596.564 192.093 588.482 205.816 580.632C206.22 568.244 205.898 555.848 205.981 543.452C206.086 539.647 205.472 535.737 206.4 532.007C208.054 530.307 210.278 529.326 212.307 528.15C224.892 521.199 237.155 513.664 249.748 506.721C249.71 523.558 249.927 540.403 249.695 557.233C236.466 565.105 223.013 572.603 209.754 580.408C208.077 581.172 207.508 582.954 207.62 584.677C207.777 610.637 207.68 636.598 207.673 662.558C207.748 666.603 207.179 670.737 208.159 674.714C209.163 678.272 212.217 680.684 215.369 682.309C226.352 688.331 236.998 694.937 247.981 700.952C248.213 685.2 247.973 669.449 248.078 653.705C250.669 652.034 253.274 650.402 255.977 648.919C268.03 642.185 279.814 634.942 291.958 628.351C292.205 644.874 291.711 661.405 292.145 677.92C306.347 686.226 320.714 694.241 334.826 702.697C320.729 711.34 306.085 719.078 292.032 727.796C292.017 743.622 291.845 759.449 292.152 775.267C305.898 783.035 319.471 791.101 333.224 798.853C347.359 791.004 361.239 782.69 375.307 774.706C389.539 782.533 403.344 791.124 417.614 798.883C431.921 790.772 446.063 782.368 460.415 774.339C460.55 791.199 460.55 808.059 460.43 824.919C448.122 832.214 435.672 839.269 423.289 846.43C419.777 848.482 418.243 852.654 418.415 856.571C418.58 869.986 418.385 883.408 418.61 896.823C432.22 904.815 445.861 912.769 459.644 920.461C474.078 912.544 488.116 903.908 502.55 895.984C502.677 912.08 502.475 928.191 502.647 944.294C516.093 936.842 529.307 928.962 542.656 921.345C543.292 909.256 542.626 897.152 543.023 885.056L544.745 885.131C544.827 897.107 544.737 909.084 544.805 921.068C552.479 925.712 560.332 930.063 568.073 934.595C573.673 937.718 579.026 941.313 584.903 943.92C585.487 935.778 585.076 927.614 585.21 919.457C585.368 914.641 584.319 909.586 586.453 905.039C587.636 916.559 586.565 928.183 587 939.74C587.157 942.122 588.407 944.227 588.976 946.519C589.066 948.601 585.907 950.151 584.522 948.391C582.785 946.519 581.34 944.287 579.049 943.021C567.594 936.565 556.244 929.914 544.842 923.36C544.692 939.194 544.932 955.027 544.752 970.861C538.261 974.838 531.643 978.606 525.032 982.388H521.222C527.061 979.063 532.804 975.565 538.711 972.352C540.537 971.183 543.248 970.09 542.896 967.446C542.896 952.795 542.881 938.137 542.873 923.487C529.412 931.089 516.034 938.842 502.715 946.691C502.43 958.585 502.632 970.487 502.61 982.388H500.282C501.427 975.453 500.626 968.405 500.858 961.416C500.866 956.87 500.858 952.324 500.768 947.785C487.3 955.477 473.854 963.221 460.497 971.101C460.453 974.861 460.423 978.621 460.43 982.388H458.319C458.776 979.138 459.127 975.827 458.716 972.562C458.656 970.592 456.567 969.79 455.182 968.839C448.796 965.311 442.507 961.604 436.173 957.986C430.364 954.75 424.831 950.99 418.714 948.339C418.288 959.686 418.595 971.041 418.512 982.388H417.352C415.967 978.276 416.618 973.917 416.558 969.678C416.483 962.547 416.768 955.409 416.341 948.286C409.393 951.477 403 955.724 396.314 959.424C390.033 963.102 383.684 966.667 377.433 970.404C384.328 974.419 391.216 978.441 398.141 982.388H394.562C374.176 971.333 354.441 959.087 334.145 947.845C333.808 959.357 334.145 970.876 334.033 982.388H331.876C332.73 977.198 332.348 971.925 332.401 966.689C332.401 960.39 332.438 954.084 332.348 947.785C318.902 955.537 305.389 963.184 292.062 971.138C292.01 974.883 291.973 978.636 292.017 982.388H290.842C289.629 978.269 290.146 973.977 290.273 969.768C304.213 961.536 318.333 953.597 332.303 945.41C332.49 913.024 332.363 880.629 332.371 848.243C345.869 840.049 359.802 832.558 373.293 824.334C360.011 816.5 346.618 808.845 333.224 801.213C319.464 809.115 305.651 816.942 292.047 825.106C291.958 852.819 292.07 880.539 291.995 908.252C292.04 911.87 291.426 915.727 293.088 919.113C293.605 920.618 295.012 922.543 293.432 923.914C292.354 924.513 291.134 924.768 289.974 925.142C288.469 922.798 286.897 920.364 284.411 918.948C273.623 912.724 262.752 906.612 252.061 900.216C250.796 899.609 249.351 898.463 247.928 899.264C244.522 900.785 241.482 903.002 238.211 904.777C228.478 910.462 218.626 915.93 208.998 921.779C222.624 929.734 236.362 937.493 249.95 945.523C250.04 957.806 249.95 970.097 250.017 982.388H247.21C247.442 979.894 247.914 977.423 247.876 974.921C247.666 965.483 247.869 956.046 247.749 946.609C234.46 938.827 221.134 931.104 207.74 923.51C207.598 937.396 207.867 951.282 207.68 965.169C207.695 967.251 207.418 969.932 209.754 970.906C216.357 974.749 223.02 978.479 229.586 982.388H226.12C219.105 979.1 212.629 974.786 205.868 971.019C205.846 955.162 205.943 939.306 205.831 923.45C191.786 931.449 177.921 939.763 163.808 947.642C163.748 935.995 163.816 924.356 163.793 912.716C163.703 908.365 164.482 903.818 162.768 899.684C162.244 897.961 160.784 895.692 162.67 894.284C165.643 893.969 168.854 894.231 171.415 892.389C182.765 885.475 194.511 879.244 205.823 872.27C206.026 839.906 205.681 807.542 205.966 775.178C219.412 767.201 233.082 759.613 246.521 751.614C241.917 747.959 236.594 745.435 231.585 742.424C223.058 737.443 214.433 732.619 205.943 727.564C205.704 718.388 205.936 709.213 205.883 700.038C205.801 693.484 206.205 686.923 205.494 680.399C192.13 687.852 178.931 695.596 165.71 703.304C165.388 719.819 165.74 736.342 165.545 752.865C151.86 745.21 138.369 737.211 124.765 729.421C122.572 727.803 120.169 729.556 118.185 730.642C106.094 737.96 93.6208 744.656 81.5672 752.041C81.6945 783.402 81.5897 814.777 81.6346 846.138C81.3651 848.25 83.4838 849.201 84.9437 850.16C97.2443 857.088 109.358 864.339 121.688 871.214C121.816 855.381 121.554 839.539 121.801 823.705C133.764 816.807 145.661 809.804 157.699 803.055C159.975 801.842 161.353 799.625 163.067 797.805C164.445 795.947 168.031 797.296 167.679 799.662C166.908 802.389 165.448 804.98 165.523 807.901C165.635 821.66 165.628 835.427 165.635 849.194C151.807 857.71 137.425 865.297 123.605 873.836C123.44 890.336 123.582 906.844 123.538 923.352C109.148 915.241 94.9235 906.844 80.594 898.62C53.6794 914.005 26.8696 929.591 0 945.058V943.268C3.54868 939.853 8.20539 938.04 12.3305 935.479C20.6407 930.565 29.1306 925.974 37.336 920.903C37.4558 905.534 37.4708 890.164 37.3734 874.795C24.9231 882.052 12.3305 889.07 0 896.523V894.583C3.47381 891.37 7.87598 889.535 11.8664 887.101C20.3488 882.112 28.9884 877.394 37.366 872.241C37.4633 842.55 37.3734 812.852 37.4633 783.162C37.628 780.248 35.8686 777.792 35.2472 775.058C36.243 771.612 40.8323 773.365 43.3104 771.695C54.0987 765.59 64.7222 759.179 75.5704 753.179C77.195 752.108 79.6656 751.105 79.3886 748.738C79.4186 733.234 79.2614 717.722 79.4934 702.217C93.1042 694.151 106.932 686.451 120.558 678.407C110.061 672.108 99.3705 666.138 88.7994 659.959C85.8421 658.139 82.4656 656.888 79.9277 654.476C78.8271 650.536 79.5458 646.365 79.4186 642.335C79.3437 630.74 79.6207 619.131 79.2988 607.536C67.7319 613.281 56.9361 620.442 45.5788 626.583C43.4901 627.819 41.1093 628.793 39.5296 630.71C38.6836 635.032 39.3424 639.489 39.2152 643.863C39.1702 671.793 39.3499 699.731 39.1253 727.661C26.1884 735.443 12.907 742.649 0 750.476V748.536C3.42889 745.585 7.57651 743.712 11.4321 741.413C19.1958 736.919 26.9595 732.425 34.7756 728.013C35.7039 727.309 37.1563 726.8 37.2162 725.452C37.6505 722.485 37.4109 719.482 37.4109 716.508C37.3435 704.367 37.4633 692.218 37.366 680.077C24.9456 687.38 12.3006 694.316 0 701.821V699.91C3.87809 696.592 8.60218 694.57 12.922 691.926C20.6482 687.357 28.5467 683.081 36.1456 678.309C29.0558 674.063 21.8611 669.996 14.6664 665.928C13.0193 664.895 11.1926 663.749 10.7434 661.682C19.9071 666.146 28.4568 671.763 37.3809 676.677C37.4483 662.491 37.3285 648.304 37.4558 634.118C37.2836 632.59 37.6729 630.538 36.1157 629.609C29.4451 625.16 21.8611 622.127 15.6022 617.034C17.5787 617.251 19.6226 617.565 21.3295 618.659C26.9445 622.045 32.5895 625.407 38.3617 628.516C46.9264 623.82 55.2666 618.726 63.7789 613.933C68.533 611.072 73.6314 608.742 77.9362 605.177C66.6912 598.196 54.9896 591.98 43.6697 585.126C41.9403 584.145 40.2334 582.984 38.2494 582.595C36.7895 582.932 35.4868 583.711 34.1991 584.445C22.8867 591.261 11.2824 597.582 0 604.436V602.54C2.67274 600.391 5.68238 598.728 8.66956 597.058C18.23 591.613 27.7231 586.048 37.2911 580.61C37.5756 565.076 37.4109 549.541 37.3809 534.007C24.9231 541.25 12.353 548.313 0 555.736V553.96C3.77328 550.807 8.27277 548.77 12.4653 546.261C20.4236 541.609 28.4643 537.108 36.3702 532.374C30.9574 529.079 25.4397 525.94 19.8846 522.892C17.8856 521.836 16.3733 520.121 14.7937 518.563C23.2461 521.566 30.3734 527.244 38.3467 531.243C51.8377 523.656 65.164 515.784 78.6025 508.099C71.4827 503.71 64.0859 499.785 56.9211 495.478C50.6997 491.981 44.6355 488.206 38.3168 484.88C30.2162 489.284 22.3252 494.055 14.337 498.654C9.56796 501.493 4.58933 504.002 0 507.133V505.066C3.62355 502.407 7.68132 500.444 11.5295 498.152C20.0792 493.127 28.7413 488.303 37.2761 483.262C37.6579 470.132 37.1638 457.002 37.5232 443.872C37.8002 440.682 36.4226 437.768 35.5242 434.802ZM40.5478 437.386C40.2034 437.521 39.5221 437.791 39.1777 437.925C39.1777 452.973 39.0729 468.02 39.2301 483.068C44.351 486.326 49.719 489.157 54.9372 492.25C63.1426 496.872 71.1308 501.86 79.456 506.272C79.7704 492.213 79.4485 478.154 79.6432 464.095C79.5309 462.253 79.9651 459.721 77.8464 458.867C65.426 451.684 53.0131 444.479 40.5478 437.386ZM123.545 532.988C123.665 548.455 123.508 563.922 123.62 579.389C137.043 571.637 150.482 563.922 163.883 556.14C163.906 540.636 164.04 525.124 163.876 509.62C150.377 517.312 136.901 525.049 123.545 532.988ZM207.628 533.093C207.725 548.553 207.493 564.019 207.755 579.479C221.194 571.757 234.632 564.027 248.026 556.222C248.116 540.703 248.213 525.176 248.018 509.65C234.52 517.402 220.954 525.056 207.628 533.093ZM39.2152 533.91C39.1328 549.406 39.1178 564.903 39.2825 580.4C52.4441 588.137 65.6581 595.8 78.9394 603.334C79.1416 601.357 79.5758 599.395 79.5309 597.395C79.3662 583.98 79.7405 570.551 79.3961 557.136C65.995 549.407 52.5639 541.729 39.2152 533.91ZM123.65 582.812C123.373 596.901 123.71 610.989 123.53 625.078C123.56 626.441 123.515 627.834 123.897 629.16C124.69 629.887 125.626 630.441 126.555 630.995C139.08 637.991 151.358 645.413 163.876 652.416C163.831 636.912 164.025 621.408 163.846 605.911C150.422 598.264 137.133 590.354 123.65 582.812ZM165.68 605.904C165.41 612.06 165.605 618.225 165.628 624.389C165.59 633.691 165.425 643.002 165.657 652.312C179.163 644.837 192.4 636.89 205.816 629.272C206.115 613.768 206.033 598.256 205.861 582.752C192.4 590.354 179.074 598.196 165.68 605.904ZM81.6196 607.611C81.3277 611.169 81.2678 614.749 81.3651 618.322C81.4025 629.969 81.3352 641.616 81.3951 653.263C83.3042 654.514 85.2282 655.765 87.2272 656.881C98.7866 663.419 110.211 670.198 121.756 676.766C121.831 661.337 121.838 645.9 121.763 630.471C110.63 623.587 99.0561 617.446 87.856 610.667C85.8945 609.424 83.7459 608.525 81.6196 607.611ZM123.62 631.377C123.567 646.889 123.35 662.408 123.695 677.912C137.111 685.59 150.43 693.439 163.883 701.049C163.876 685.567 164.085 670.078 163.786 654.604C150.4 646.851 136.991 639.144 123.62 631.377ZM165.702 654.589C165.425 660.236 165.56 665.898 165.575 671.553C165.777 681.358 165.403 691.162 165.687 700.959C177.344 694.503 188.776 687.642 200.373 681.073C203.802 679.283 206.085 675.471 205.943 671.591C205.726 658.214 205.958 644.837 205.801 631.459C192.377 639.062 179.066 646.874 165.702 654.589ZM271.01 642.357C264.414 646.282 257.646 649.907 251.118 653.937C249.553 654.671 249.995 656.641 249.823 658.041C249.95 672.34 249.77 686.638 249.995 700.929C263.501 693.439 276.812 685.582 290.161 677.815C290.348 662.363 290.273 646.911 290.191 631.459C283.632 634.792 277.426 638.77 271.01 642.357ZM81.44 703.423C81.4475 718.793 81.3352 734.17 81.4849 749.539C94.0176 742.611 106.273 735.188 118.761 728.185C119.989 727.331 121.958 726.605 121.726 724.77C121.718 709.865 121.853 694.952 121.763 680.04C108.287 687.777 94.7662 695.431 81.44 703.423ZM250.923 702.719C264.302 710.494 277.688 718.246 291.119 725.931C304.505 718.216 317.989 710.651 331.218 702.674C317.929 694.855 304.58 687.118 291.149 679.53C277.651 687.103 264.294 694.93 250.923 702.719ZM123.62 680.174C123.53 695.641 123.388 711.116 123.687 726.575C137.118 734.185 150.362 742.117 163.846 749.629C163.951 734.192 164.025 718.748 163.808 703.311C150.445 695.544 137.073 687.784 123.62 680.174ZM208.886 680.744C208.616 680.961 208.069 681.403 207.8 681.627C207.703 696.57 207.703 711.528 207.875 726.47C219.487 733.353 231.293 739.93 242.89 746.835C244.455 747.832 246.259 748.318 248.018 748.858C248.063 733.698 248.093 718.531 248.063 703.371C235.089 695.686 222.025 688.136 208.886 680.744ZM249.965 704.412C249.86 717.677 250.077 730.942 249.92 744.206C249.658 747.951 251.657 751.719 254.839 753.681C266.63 760.482 278.444 767.253 290.206 774.099C290.258 758.685 290.183 743.263 290.266 727.848C288.169 726.47 286.073 725.114 283.887 723.901C272.53 717.497 261.345 710.786 249.965 704.412ZM44.7029 773.185C40.5927 775.312 38.8408 780.226 39.3574 784.645C39.5895 797.206 39.1628 809.774 39.582 822.327C51.2388 816.058 62.4912 809.062 74.0656 802.636C75.8624 801.572 77.8389 800.704 79.2988 799.183C79.718 796.614 79.441 794 79.4785 791.416C79.5084 778.668 79.4859 765.927 79.5009 753.187C67.8367 759.733 56.3521 766.602 44.7029 773.185ZM234.527 760.879C226.689 765.283 218.993 769.92 211.132 774.286C209.507 775.245 207.298 776.316 207.74 778.608C207.777 793.288 207.785 807.976 207.748 822.664C221.201 815.069 234.527 807.25 247.921 799.535C248.153 787.326 247.884 775.118 248.056 762.909C248.116 759.801 247.996 756.7 247.801 753.606C243.1 755.501 238.952 758.445 234.527 760.879ZM250.152 753.614C249.905 768.474 249.935 783.349 250.137 798.217C263.037 790.779 276.033 783.476 288.813 775.829C286.515 773.732 283.587 772.556 280.96 770.961C274.836 767.336 268.607 763.898 262.49 760.28C258.41 757.988 254.517 755.337 250.152 753.614ZM250.886 800.022C263.104 807.085 275.345 814.103 287.525 821.241C288.693 821.878 289.876 822.537 291.186 822.866C292.294 822.552 293.328 822.005 294.346 821.458C306.564 814.245 318.954 807.317 331.173 800.097C317.966 792.172 304.543 784.6 291.209 776.893C277.651 784.398 264.384 792.412 250.886 800.022ZM373.51 777.844C360.768 785.252 347.995 792.607 335.231 799.977C348.504 807.871 361.928 815.504 375.314 823.196C388.805 815.631 402.191 807.864 415.54 800.044C403.337 792.824 390.969 785.903 378.766 778.69C377.171 777.836 375.224 776.488 373.51 777.844ZM418.572 800.546C418.542 811.227 418.467 821.908 418.445 832.588C418.557 837.3 417.973 842.063 419.036 846.715C431.906 839.307 444.798 831.922 457.63 824.462C459.135 823.788 458.686 821.87 458.873 820.559C458.783 806.134 458.873 791.701 458.82 777.267C445.367 784.96 431.951 792.727 418.572 800.546ZM39.5146 824.964C39.32 840.356 39.5371 855.748 39.4173 871.147C52.8259 863.53 66.2495 855.912 79.456 847.958C79.4036 832.596 79.486 817.234 79.4785 801.872C66.0998 809.474 52.8184 817.234 39.5146 824.964ZM210.69 823.233C209.41 824.02 207.575 824.754 207.837 826.596C207.733 841.487 207.897 856.384 207.785 871.274C219.943 864.496 231.877 857.313 244.005 850.475C245.263 849.733 246.558 849.029 247.636 848.033C248.146 846.19 248.041 844.258 248.048 842.37C247.794 828.866 248.168 815.354 247.899 801.849C235.448 808.898 223.17 816.238 210.69 823.233ZM250.077 801.805C249.927 817.264 250.077 832.731 250.115 848.198C263.463 855.92 276.782 863.709 290.206 871.304C290.138 856.399 290.258 841.487 290.161 826.589C290.34 824.754 288.461 824.005 287.211 823.181C274.768 816.163 262.475 808.898 250.077 801.805ZM377.373 824.454C389.187 831.308 401.068 838.056 412.83 844.999C414.05 845.404 415.323 846.213 416.641 846.011C416.663 831.248 416.685 816.485 416.633 801.715C403.494 809.205 390.347 816.695 377.373 824.454ZM157.16 805.55C146.581 811.736 135.928 817.803 125.334 823.952C123.283 824.724 123.575 827.046 123.515 828.821C123.567 842.999 123.493 857.171 123.56 871.349C136.939 863.522 150.415 855.845 163.831 848.078C163.936 832.836 164.078 817.586 163.756 802.344C161.457 803.205 159.196 804.171 157.16 805.55ZM334.137 849.336C333.913 864.773 333.995 880.217 334.093 895.654C347.598 888.014 361.06 880.277 374.423 872.383C374.296 856.946 374.58 841.509 374.408 826.065C360.94 833.742 347.561 841.584 334.137 849.336ZM376.43 826.184C376.205 838.55 376.422 850.916 376.422 863.29C376.467 866.278 376.168 869.297 376.609 872.27C378.032 873.671 379.874 874.54 381.588 875.536C393.275 882.172 404.782 889.13 416.581 895.579C416.633 882.067 416.618 868.555 416.656 855.043C416.588 851.119 414.02 847.441 410.546 845.718C399.092 839.352 387.907 832.506 376.43 826.184ZM39.5596 873.634C39.4023 888.966 39.4622 904.298 39.5296 919.63C52.9382 912.305 66.0773 904.47 79.2988 896.808C79.4934 881.408 79.3886 866.016 79.3587 850.624C66.0549 858.219 52.7735 865.874 39.5596 873.634ZM81.6496 850.564C81.6271 865.979 81.6047 881.401 81.6795 896.823C94.9983 904.567 108.34 912.282 121.711 919.937C121.598 906.305 121.643 892.681 121.748 879.056C121.673 876.727 122.407 873.581 119.682 872.51C106.977 865.245 94.347 857.837 81.6496 850.564ZM210.675 871.941C209.784 872.465 208.871 872.997 208.122 873.738C207.777 874.959 207.815 876.24 207.777 877.513C207.882 891.587 207.867 905.653 207.852 919.727C210.622 918.327 213.363 916.858 216.028 915.263C226.591 909.054 237.305 903.107 247.816 896.815C247.973 881.408 247.996 865.994 247.914 850.587C235.396 857.523 223.155 864.938 210.675 871.941ZM250.1 850.527C250.107 865.949 250.032 881.378 250.13 896.8C263.179 904.492 276.348 911.982 289.442 919.6C289.861 918.094 290.288 916.559 290.228 914.986C290.101 901.744 290.281 888.501 290.161 875.266C290.37 873.424 288.431 872.682 287.189 871.843C274.753 864.87 262.513 857.538 250.1 850.527ZM335.253 897.347C347.628 904.68 360.206 911.66 372.559 919.03C373.996 919.967 375.771 920.573 377.321 919.465C390.07 912.11 402.813 904.725 415.577 897.399C402.229 889.625 388.82 881.955 375.456 874.203C361.973 881.783 348.684 889.685 335.253 897.347ZM170.778 894.965C167.784 896.815 165.096 899.983 165.455 903.728C165.568 917.255 165.403 930.782 165.545 944.309C177.449 937.516 189.27 930.58 201.182 923.794C202.709 922.895 204.371 922.124 205.606 920.828C205.906 919.383 205.876 917.9 205.898 916.447C205.831 902.545 205.936 888.644 205.846 874.742C194.144 881.461 182.517 888.307 170.778 894.965ZM334.07 899.085C334.063 914.514 333.898 929.951 334.182 945.388C347.494 953.192 360.902 960.81 374.221 968.592C374.356 953.11 374.528 937.621 374.206 922.139C360.782 914.537 347.524 906.635 334.07 899.085ZM377.38 921.667C388.835 928.49 400.499 934.954 411.954 941.763C413.361 942.661 415.008 943.021 416.581 943.538C416.566 928.753 416.596 913.967 416.603 899.182C403.382 906.402 390.512 914.267 377.38 921.667ZM418.587 899.152C418.452 912.409 418.617 925.667 418.482 938.924C418.138 943.021 420.691 946.953 424.239 948.841C435.806 955.379 447.209 962.203 458.798 968.704C458.641 953.335 459.067 937.943 458.633 922.596C455.796 920.102 452.165 918.731 449.013 916.679C438.883 910.807 428.739 904.972 418.587 899.152ZM460.467 922.453C460.4 937.883 460.438 953.32 460.453 968.749C473.884 961.027 487.315 953.282 500.723 945.515C500.963 930.041 500.881 914.559 500.776 899.085C487.307 906.814 473.824 914.529 460.467 922.453ZM376.534 923.629C376.385 938.564 376.482 953.507 376.534 968.442C382.434 965.274 388.176 961.821 393.978 958.48C400.934 954.361 408.113 950.623 414.889 946.204C411.153 943.028 406.653 941.021 402.483 938.52C393.829 933.561 385.271 928.438 376.534 923.629Z" fill="#EF95BA" fill-opacity="0.3"/>
<path d="M49.8387 962.51C60.4474 956.525 70.8313 950.151 81.5672 944.399C81.7394 957.057 81.5747 969.723 81.6047 982.388H79.9127C78.9319 977.19 79.4186 971.895 79.3512 966.644C79.3063 960.42 79.3587 954.204 79.3587 947.979C68.3458 954.159 57.5276 960.69 46.4997 966.839C44.381 968.053 42.2173 969.446 40.9895 971.64C38.9606 974.831 39.5521 978.793 39.4997 982.388H36.8494C37.5082 979.085 38.0248 975.408 36.2579 972.352C34.1617 968.105 29.3852 966.555 25.6044 964.24C17.0995 959.214 8.43747 954.466 0 949.343V946.481C3.50376 949.35 7.62891 951.29 11.4995 953.604C17.8033 957.327 24.2418 960.847 30.5007 964.66C32.8515 966.023 35.3371 967.521 38.1521 967.476C42.6141 967.723 46.1328 964.495 49.8387 962.51Z" fill="#EF95BA" fill-opacity="0.3"/>
<path d="M1476.48 547.198C1476.99 549.31 1473.87 550.883 1472.36 549.445C1470.6 547.677 1469.28 545.43 1467.1 544.112C1454.94 537.116 1442.67 530.293 1430.69 522.975C1430.69 506.437 1430.81 489.899 1430.63 473.369C1444.35 465.52 1458.07 457.678 1471.65 449.581C1458.07 441.462 1444.15 433.934 1430.67 425.658C1430.63 413.726 1430.63 401.787 1430.68 389.856C1430.63 385.961 1431.25 381.751 1429.34 378.171C1427.63 374.853 1424.02 373.325 1420.95 371.565C1410.68 365.768 1400.54 359.708 1390.26 353.919C1390.14 384.882 1390.18 415.846 1390.24 446.802C1390.12 448.203 1390.3 450.015 1388.9 450.847C1386.4 452.742 1383.5 454 1380.8 455.588C1369.37 462.194 1358 468.905 1346.45 475.316C1346.52 458.516 1346.35 441.716 1346.39 424.909C1359.89 416.67 1373.83 409.142 1387.38 400.963C1374.12 393.084 1360.73 385.414 1347.32 377.782C1333.5 385.436 1319.91 393.518 1306.18 401.368C1305.78 413.756 1306.1 426.152 1306.02 438.548C1305.91 442.353 1306.53 446.263 1305.6 449.993C1303.95 451.693 1301.72 452.674 1299.69 453.85C1287.11 460.801 1274.84 468.336 1262.25 475.279C1262.29 458.441 1262.07 441.597 1262.3 424.767C1275.53 416.895 1288.99 409.397 1302.25 401.592C1303.92 400.828 1304.49 399.046 1304.38 397.323C1304.22 371.363 1304.32 345.402 1304.33 319.442C1304.25 315.397 1304.82 311.263 1303.84 307.286C1302.84 303.728 1299.78 301.316 1296.63 299.691C1285.65 293.669 1275 287.063 1264.02 281.048C1263.79 296.8 1264.03 312.551 1263.92 328.295C1261.33 329.966 1258.73 331.598 1256.02 333.081C1243.97 339.815 1232.19 347.058 1220.04 353.649C1219.8 337.126 1220.29 320.595 1219.86 304.08C1205.65 295.774 1191.29 287.759 1177.17 279.303C1191.27 270.66 1205.92 262.922 1219.97 254.204C1219.98 238.378 1220.15 222.551 1219.85 206.733C1206.1 198.965 1192.53 190.899 1178.78 183.147C1164.64 190.996 1150.76 199.31 1136.69 207.294C1122.46 199.467 1108.66 190.876 1094.39 183.117C1080.08 191.228 1065.94 199.632 1051.58 207.661C1051.45 190.801 1051.45 173.941 1051.57 157.081C1063.88 149.786 1076.33 142.731 1088.71 135.57C1092.22 133.518 1093.76 129.346 1093.59 125.429C1093.42 112.014 1093.62 98.5919 1093.39 85.1773C1079.78 77.1855 1066.14 69.2311 1052.36 61.5389C1037.92 69.4558 1023.88 78.0918 1009.45 86.0162C1009.32 69.9202 1009.52 53.8093 1009.35 37.7057C995.907 45.1583 982.693 53.0377 969.344 60.6551C968.708 72.7439 969.374 84.8478 968.977 96.9441L967.255 96.8692C967.173 84.8927 967.263 72.9162 967.195 60.9322C959.521 56.2884 951.668 51.9367 943.927 47.4052C938.327 44.2819 932.974 40.6867 927.097 38.0802C926.513 46.2219 926.924 54.386 926.79 62.5426C926.632 67.3586 927.681 72.4144 925.547 76.9608C924.364 65.4412 925.435 53.8167 925 42.2597C924.843 39.8779 923.593 37.7731 923.024 35.4812C922.934 33.399 926.093 31.8486 927.478 33.6087C929.215 35.4812 930.66 37.7132 932.951 38.979C944.406 45.4354 955.756 52.0865 967.158 58.6402C967.307 42.8064 967.068 26.9726 967.248 11.1387C973.739 7.16156 980.357 3.3941 986.968 -0.388367H990.778C984.939 2.93719 979.196 6.435 973.289 9.64819C971.463 10.8167 968.752 11.9102 969.104 14.5541C969.104 29.2046 969.119 43.8625 969.127 58.513C982.588 50.9106 995.966 43.1585 1009.29 35.309C1009.57 23.4149 1009.37 11.5132 1009.39 -0.388367H1011.72C1010.57 6.54736 1011.37 13.5955 1011.14 20.5836C1011.13 25.1301 1011.14 29.6765 1011.23 34.2154C1024.7 26.5231 1038.15 18.7785 1051.5 10.899C1051.55 7.13904 1051.58 3.37909 1051.57 -0.388367H1053.68C1053.22 2.8623 1052.87 6.17285 1053.28 9.43848C1053.34 11.4083 1055.43 12.2098 1056.82 13.161C1063.2 16.6888 1069.49 20.3964 1075.83 24.0141C1081.64 27.2498 1087.17 31.0097 1093.29 33.6612C1093.71 22.3138 1093.41 10.959 1093.49 -0.388367H1094.65C1096.03 3.72363 1095.38 8.08276 1095.44 12.3221C1095.52 19.4526 1095.23 26.5906 1095.66 33.7136C1102.61 30.5228 1109 26.276 1115.69 22.5759C1121.97 18.8983 1128.32 15.3331 1134.57 11.5956C1127.67 7.58099 1120.78 3.55884 1113.86 -0.388367H1117.44C1137.82 10.6669 1157.56 22.913 1177.86 34.1555C1178.19 22.6433 1177.86 11.1238 1177.97 -0.388367H1180.12C1179.27 4.80219 1179.65 10.0751 1179.6 15.3107C1179.6 21.6097 1179.56 27.9163 1179.65 34.2154C1193.1 26.4633 1206.61 18.816 1219.94 10.8616C1219.99 7.11664 1220.03 3.36414 1219.98 -0.388367H1221.16C1222.37 3.73114 1221.85 8.02289 1221.73 12.2322C1207.79 20.4637 1193.67 28.4031 1179.7 36.5897C1179.51 68.9765 1179.64 101.371 1179.63 133.757C1166.13 141.951 1152.2 149.442 1138.71 157.666C1151.99 165.5 1165.38 173.155 1178.78 180.787C1192.54 172.885 1206.35 165.058 1219.95 156.894C1220.04 129.181 1219.93 101.461 1220 73.7476C1219.96 70.1299 1220.57 66.2726 1218.91 62.8871C1218.4 61.3816 1216.99 59.4567 1218.57 58.086C1219.65 57.4868 1220.87 57.2321 1222.03 56.8576C1223.53 59.2019 1225.1 61.6363 1227.59 63.0519C1238.38 69.2761 1249.25 75.3879 1259.94 81.7844C1261.2 82.3911 1262.65 83.537 1264.07 82.7356C1267.48 81.2151 1270.52 78.9981 1273.79 77.223C1283.52 71.5381 1293.37 66.0703 1303 60.2206C1289.38 52.2662 1275.64 44.5066 1262.05 36.4774C1261.96 24.1937 1262.05 11.9027 1261.98 -0.388367H1264.79C1264.56 2.10577 1264.09 4.57745 1264.12 7.0791C1264.33 16.5165 1264.13 25.954 1264.25 35.3914C1277.54 43.1735 1290.87 50.8956 1304.26 58.4904C1304.4 44.604 1304.13 30.7176 1304.32 16.8311C1304.3 14.7489 1304.58 12.0675 1302.25 11.0938C1295.64 7.25146 1288.98 3.52142 1282.41 -0.388367H1285.88C1292.9 2.89972 1299.37 7.21399 1306.13 10.9814C1306.15 26.8378 1306.06 42.6941 1306.17 58.5504C1320.21 50.5511 1334.08 42.2372 1348.19 34.3577C1348.25 46.0047 1348.18 57.6441 1348.21 69.2836C1348.3 73.6353 1347.52 78.1816 1349.23 82.3161C1349.76 84.0388 1351.22 86.3083 1349.33 87.7164C1346.36 88.031 1343.15 87.7688 1340.59 89.6114C1329.24 96.5246 1317.49 102.756 1306.18 109.73C1305.97 142.094 1306.32 174.458 1306.03 206.822C1292.59 214.799 1278.92 222.387 1265.48 230.386C1270.08 234.041 1275.41 236.565 1280.41 239.576C1288.94 244.557 1297.57 249.381 1306.06 254.436C1306.3 263.612 1306.06 272.787 1306.12 281.962C1306.2 288.516 1305.79 295.077 1306.51 301.601C1319.87 294.148 1333.07 286.404 1346.29 278.696C1346.61 262.181 1346.26 245.658 1346.45 229.135C1360.14 236.79 1373.63 244.789 1387.23 252.579C1389.43 254.197 1391.83 252.444 1393.82 251.358C1405.91 244.04 1418.38 237.344 1430.43 229.959C1430.31 198.598 1430.41 167.223 1430.37 135.862C1430.63 133.75 1428.52 132.799 1427.06 131.84C1414.76 124.912 1402.64 117.661 1390.31 110.786C1390.18 126.619 1390.45 142.461 1390.2 158.295C1378.24 165.193 1366.34 172.196 1354.3 178.945C1352.02 180.158 1350.65 182.375 1348.93 184.195C1347.56 186.053 1343.97 184.704 1344.32 182.338C1345.09 179.611 1346.55 177.02 1346.48 174.099C1346.36 160.34 1346.37 146.573 1346.36 132.806C1360.19 124.29 1374.57 116.703 1388.4 108.164C1388.56 91.6637 1388.42 75.1557 1388.46 58.6477C1402.85 66.7594 1417.08 75.1557 1431.41 83.3797C1458.32 67.9953 1485.13 52.4086 1512 36.9418V38.7318C1508.45 42.1473 1503.79 43.9599 1499.67 46.5215C1491.36 51.4349 1482.87 56.0263 1474.66 61.097C1474.54 76.4665 1474.53 91.8359 1474.63 107.205C1487.08 99.9476 1499.67 92.9295 1512 85.477V87.4168C1508.53 90.63 1504.12 92.4651 1500.13 94.8993C1491.65 99.8877 1483.01 104.606 1474.63 109.759C1474.54 139.45 1474.63 169.148 1474.54 198.838C1474.37 201.752 1476.13 204.208 1476.75 206.942C1475.76 210.388 1471.17 208.635 1468.69 210.305C1457.9 216.41 1447.28 222.821 1436.43 228.821C1434.8 229.892 1432.33 230.895 1432.61 233.262C1432.58 248.766 1432.74 264.278 1432.51 279.783C1418.9 287.849 1405.07 295.549 1391.44 303.593C1401.94 309.892 1412.63 315.862 1423.2 322.041C1426.16 323.861 1429.53 325.112 1432.07 327.524C1433.17 331.464 1432.45 335.635 1432.58 339.665C1432.66 351.26 1432.38 362.869 1432.7 374.464C1444.27 368.719 1455.06 361.558 1466.42 355.417C1468.51 354.181 1470.89 353.207 1472.47 351.29C1473.32 346.968 1472.66 342.511 1472.78 338.137C1472.83 310.207 1472.65 282.269 1472.87 254.339C1485.81 246.557 1499.09 239.352 1512 231.524V233.464C1508.57 236.415 1504.42 238.288 1500.57 240.587C1492.8 245.081 1485.04 249.575 1477.22 253.987C1476.3 254.691 1474.84 255.2 1474.78 256.548C1474.35 259.515 1474.59 262.518 1474.59 265.492C1474.66 277.633 1474.54 289.782 1474.63 301.923C1487.05 294.62 1499.7 287.684 1512 280.179V282.09C1508.12 285.408 1503.4 287.43 1499.08 290.074C1491.35 294.643 1483.45 298.919 1475.85 303.691C1482.94 307.937 1490.14 312.004 1497.33 316.072C1498.98 317.105 1500.81 318.251 1501.26 320.318C1492.09 315.854 1483.54 310.237 1474.62 305.323C1474.55 319.509 1474.67 333.696 1474.54 347.882C1474.72 349.41 1474.33 351.462 1475.88 352.391C1482.55 356.84 1490.14 359.873 1496.4 364.966C1494.42 364.749 1492.38 364.435 1490.67 363.341C1485.06 359.955 1479.41 356.593 1473.64 353.484C1465.07 358.18 1456.73 363.274 1448.22 368.067C1443.47 370.928 1438.37 373.258 1434.06 376.823C1445.31 383.804 1457.01 390.02 1468.33 396.874C1470.06 397.855 1471.77 399.016 1473.75 399.405C1475.21 399.068 1476.51 398.289 1477.8 397.555C1489.11 390.739 1500.72 384.418 1512 377.564V379.46C1509.33 381.609 1506.32 383.272 1503.33 384.942C1493.77 390.387 1484.28 395.952 1474.71 401.39C1474.42 416.924 1474.59 432.459 1474.62 447.993C1487.08 440.75 1499.65 433.687 1512 426.264V428.04C1508.23 431.193 1503.73 433.23 1499.53 435.739C1491.58 440.391 1483.54 444.892 1475.63 449.626C1481.04 452.921 1486.56 456.06 1492.12 459.108C1494.11 460.164 1495.63 461.879 1497.21 463.437C1488.75 460.434 1481.63 454.756 1473.65 450.757C1460.16 458.344 1446.84 466.216 1433.4 473.901C1440.52 478.29 1447.91 482.215 1455.08 486.522C1461.3 490.019 1467.36 493.794 1473.68 497.12C1481.78 492.716 1489.67 487.945 1497.66 483.346C1502.43 480.507 1507.41 477.998 1512 474.867V476.934C1508.38 479.593 1504.32 481.556 1500.47 483.848C1491.92 488.873 1483.26 493.697 1474.72 498.738C1474.34 511.868 1474.84 524.998 1474.48 538.128C1474.2 541.318 1475.58 544.232 1476.48 547.198ZM1471.45 544.614C1471.8 544.479 1472.48 544.209 1472.82 544.075C1472.82 529.027 1472.93 513.98 1472.77 498.932C1467.65 495.674 1462.28 492.843 1457.06 489.75C1448.86 485.128 1440.87 480.14 1432.54 475.728C1432.23 489.787 1432.55 503.846 1432.36 517.905C1432.47 519.747 1432.03 522.279 1434.15 523.133C1446.57 530.316 1458.99 537.521 1471.45 544.614ZM1388.46 449.012C1388.34 433.545 1388.49 418.078 1388.38 402.611C1374.96 410.363 1361.52 418.078 1348.12 425.86C1348.09 441.364 1347.96 456.876 1348.12 472.38C1361.62 464.688 1375.1 456.951 1388.46 449.012ZM1304.37 448.907C1304.27 433.447 1304.51 417.981 1304.24 402.521C1290.81 410.243 1277.37 417.973 1263.97 425.778C1263.88 441.297 1263.79 456.824 1263.98 472.35C1277.48 464.598 1291.05 456.944 1304.37 448.907ZM1472.78 448.09C1472.87 432.594 1472.88 417.097 1472.72 401.6C1459.56 393.863 1446.34 386.201 1433.06 378.666C1432.86 380.643 1432.42 382.605 1432.47 384.605C1432.63 398.02 1432.26 411.449 1432.6 424.864C1446.01 432.593 1459.44 440.271 1472.78 448.09ZM1388.35 399.188C1388.63 385.099 1388.29 371.011 1388.47 356.922C1388.44 355.559 1388.48 354.166 1388.1 352.84C1387.31 352.113 1386.37 351.559 1385.45 351.005C1372.92 344.009 1360.64 336.587 1348.12 329.584C1348.17 345.088 1347.97 360.592 1348.15 376.089C1361.58 383.736 1374.87 391.646 1388.35 399.188ZM1346.32 376.096C1346.59 369.94 1346.39 363.775 1346.37 357.611C1346.41 348.309 1346.57 338.998 1346.34 329.688C1332.84 337.163 1319.6 345.11 1306.18 352.728C1305.88 368.232 1305.97 383.744 1306.14 399.248C1319.6 391.646 1332.93 383.804 1346.32 376.096ZM1430.38 374.389C1430.67 370.831 1430.73 367.251 1430.63 363.678C1430.6 352.031 1430.66 340.384 1430.6 328.737C1428.7 327.486 1426.77 326.235 1424.77 325.119C1413.21 318.581 1401.79 311.802 1390.24 305.234C1390.17 320.663 1390.16 336.1 1390.24 351.529C1401.37 358.413 1412.94 364.554 1424.14 371.333C1426.11 372.576 1428.25 373.475 1430.38 374.389ZM1388.38 350.623C1388.43 335.111 1388.65 319.592 1388.31 304.088C1374.89 296.41 1361.57 288.561 1348.12 280.951C1348.12 296.433 1347.91 311.922 1348.21 327.396C1361.6 335.149 1375.01 342.856 1388.38 350.623ZM1346.3 327.411C1346.57 321.764 1346.44 316.102 1346.42 310.447C1346.22 300.642 1346.6 290.838 1346.31 281.041C1334.66 287.497 1323.22 294.358 1311.63 300.927C1308.2 302.717 1305.91 306.529 1306.06 310.409C1306.27 323.786 1306.04 337.163 1306.2 350.541C1319.62 342.938 1332.93 335.126 1346.3 327.411ZM1240.99 339.643C1247.59 335.718 1254.35 332.093 1260.88 328.063C1262.45 327.329 1262.01 325.359 1262.18 323.959C1262.05 309.66 1262.23 295.362 1262.01 281.071C1248.5 288.561 1235.19 296.418 1221.84 304.185C1221.65 319.637 1221.73 335.089 1221.81 350.541C1228.37 347.208 1234.57 343.23 1240.99 339.643ZM1430.56 278.577C1430.55 263.207 1430.66 247.83 1430.52 232.461C1417.98 239.389 1405.73 246.812 1393.24 253.815C1392.01 254.669 1390.04 255.395 1390.27 257.23C1390.28 272.135 1390.15 287.048 1390.24 301.96C1403.71 294.223 1417.23 286.569 1430.56 278.577ZM1261.08 279.281C1247.7 271.506 1234.31 263.754 1220.88 256.069C1207.49 263.784 1194.01 271.349 1180.78 279.326C1194.07 287.145 1207.42 294.882 1220.85 302.47C1234.35 294.897 1247.71 287.07 1261.08 279.281ZM1388.38 301.826C1388.47 286.359 1388.61 270.884 1388.31 255.425C1374.88 247.815 1361.64 239.883 1348.15 232.371C1348.05 247.808 1347.97 263.252 1348.19 278.689C1361.56 286.456 1374.93 294.216 1388.38 301.826ZM1303.11 301.256C1303.38 301.039 1303.93 300.597 1304.2 300.373C1304.3 285.43 1304.3 270.473 1304.13 255.53C1292.51 248.647 1280.71 242.07 1269.11 235.165C1267.55 234.168 1265.74 233.682 1263.98 233.142C1263.94 248.302 1263.91 263.469 1263.94 278.629C1276.91 286.314 1289.98 293.864 1303.11 301.256ZM1262.04 277.588C1262.14 264.323 1261.92 251.058 1262.08 237.794C1262.34 234.049 1260.34 230.281 1257.16 228.319C1245.37 221.518 1233.56 214.747 1221.79 207.901C1221.74 223.315 1221.82 238.737 1221.73 254.152C1223.83 255.53 1225.93 256.886 1228.11 258.099C1239.47 264.503 1250.66 271.214 1262.04 277.588ZM1467.3 208.815C1471.41 206.688 1473.16 201.774 1472.64 197.355C1472.41 184.794 1472.84 172.226 1472.42 159.673C1460.76 165.942 1449.51 172.938 1437.93 179.364C1436.14 180.428 1434.16 181.296 1432.7 182.817C1432.28 185.386 1432.56 188 1432.52 190.584C1432.49 203.332 1432.51 216.073 1432.5 228.813C1444.16 222.267 1455.65 215.398 1467.3 208.815ZM1277.47 221.121C1285.31 216.717 1293.01 212.08 1300.87 207.714C1302.49 206.755 1304.7 205.684 1304.26 203.392C1304.22 188.712 1304.22 174.024 1304.25 159.336C1290.8 166.931 1277.47 174.75 1264.08 182.465C1263.85 194.674 1264.12 206.882 1263.94 219.091C1263.88 222.199 1264 225.3 1264.2 228.394C1268.9 226.499 1273.05 223.555 1277.47 221.121ZM1261.85 228.386C1262.1 213.526 1262.07 198.651 1261.86 183.783C1248.96 191.221 1235.97 198.524 1223.19 206.171C1225.49 208.268 1228.41 209.444 1231.04 211.039C1237.16 214.664 1243.39 218.102 1249.51 221.72C1253.59 224.012 1257.48 226.663 1261.85 228.386ZM1261.11 181.978C1248.9 174.915 1236.66 167.897 1224.47 160.759C1223.31 160.122 1222.12 159.463 1220.81 159.134C1219.71 159.448 1218.67 159.995 1217.65 160.542C1205.44 167.755 1193.05 174.683 1180.83 181.903C1194.03 189.828 1207.46 197.4 1220.79 205.107C1234.35 197.602 1247.62 189.588 1261.11 181.978ZM1138.49 204.156C1151.23 196.748 1164 189.393 1176.77 182.023C1163.5 174.129 1150.07 166.496 1136.69 158.804C1123.19 166.369 1109.81 174.136 1096.46 181.956C1108.66 189.176 1121.03 196.097 1133.23 203.31C1134.83 204.164 1136.78 205.512 1138.49 204.156ZM1093.43 181.454C1093.46 170.773 1093.53 160.092 1093.56 149.412C1093.44 144.7 1094.03 139.937 1092.96 135.285C1080.09 142.693 1067.2 150.078 1054.37 157.538C1052.87 158.212 1053.31 160.13 1053.13 161.441C1053.22 175.866 1053.13 190.299 1053.18 204.733C1066.63 197.04 1080.05 189.273 1093.43 181.454ZM1472.49 157.036C1472.68 141.644 1472.46 126.253 1472.58 110.853C1459.17 118.47 1445.75 126.088 1432.54 134.042C1432.6 149.404 1432.51 164.766 1432.52 180.128C1445.9 172.526 1459.18 164.766 1472.49 157.036ZM1301.31 158.767C1302.59 157.98 1304.42 157.246 1304.16 155.404C1304.27 140.513 1304.1 125.616 1304.22 110.726C1292.06 117.504 1280.12 124.687 1267.99 131.525C1266.74 132.267 1265.44 132.971 1264.36 133.967C1263.85 135.81 1263.96 137.742 1263.95 139.63C1264.21 153.134 1263.83 166.646 1264.1 180.151C1276.55 173.102 1288.83 165.762 1301.31 158.767ZM1261.92 180.195C1262.07 164.736 1261.92 149.269 1261.89 133.802C1248.54 126.08 1235.22 118.291 1221.79 110.696C1221.86 125.601 1221.74 140.513 1221.84 155.411C1221.66 157.246 1223.54 157.995 1224.79 158.819C1237.23 165.837 1249.52 173.102 1261.92 180.195ZM1134.63 157.546C1122.81 150.692 1110.93 143.944 1099.17 137.001C1097.95 136.596 1096.68 135.787 1095.36 135.989C1095.34 150.752 1095.31 165.515 1095.37 180.285C1108.51 172.795 1121.65 165.305 1134.63 157.546ZM1354.84 176.45C1365.42 170.264 1376.07 164.197 1386.67 158.048C1388.72 157.276 1388.43 154.954 1388.48 153.179C1388.43 139.001 1388.51 124.829 1388.44 110.651C1375.06 118.478 1361.59 126.155 1348.17 133.922C1348.06 149.164 1347.92 164.414 1348.24 179.656C1350.54 178.795 1352.8 177.829 1354.84 176.45ZM1177.86 132.664C1178.09 117.227 1178 101.783 1177.91 86.3457C1164.4 93.9855 1150.94 101.723 1137.58 109.617C1137.7 125.054 1137.42 140.491 1137.59 155.935C1151.06 148.258 1164.44 140.416 1177.86 132.664ZM1135.57 155.816C1135.79 143.45 1135.58 131.084 1135.58 118.71C1135.53 115.722 1135.83 112.703 1135.39 109.73C1133.97 108.329 1132.13 107.46 1130.41 106.464C1118.73 99.8277 1107.22 92.8696 1095.42 86.4207C1095.37 99.9326 1095.38 113.445 1095.34 126.957C1095.41 130.881 1097.98 134.559 1101.45 136.282C1112.91 142.648 1124.09 149.494 1135.57 155.816ZM1472.44 108.366C1472.6 93.0343 1472.54 77.7023 1472.47 62.3703C1459.06 69.6955 1445.92 77.53 1432.7 85.1923C1432.51 100.592 1432.61 115.984 1432.64 131.376C1445.95 123.781 1459.23 116.126 1472.44 108.366ZM1430.35 131.436C1430.37 116.021 1430.4 100.599 1430.32 85.1773C1417 77.4326 1403.66 69.718 1390.29 62.0632C1390.4 75.695 1390.36 89.3193 1390.25 102.944C1390.33 105.273 1389.59 108.419 1392.32 109.49C1405.02 116.755 1417.65 124.163 1430.35 131.436ZM1301.33 110.059C1302.22 109.535 1303.13 109.003 1303.88 108.262C1304.22 107.041 1304.19 105.76 1304.22 104.487C1304.12 90.4129 1304.13 76.3466 1304.15 62.2729C1301.38 63.6735 1298.64 65.1415 1295.97 66.7369C1285.41 72.9461 1274.7 78.8932 1264.18 85.1848C1264.03 100.592 1264 116.006 1264.09 131.413C1276.6 124.477 1288.84 117.062 1301.33 110.059ZM1261.9 131.473C1261.89 116.051 1261.97 100.622 1261.87 85.1998C1248.82 77.5076 1235.65 70.0176 1222.56 62.4002C1222.14 63.9057 1221.71 65.4412 1221.77 67.0141C1221.9 80.2564 1221.72 93.4987 1221.84 106.734C1221.63 108.576 1223.57 109.318 1224.81 110.157C1237.25 117.13 1249.49 124.462 1261.9 131.473ZM1176.75 84.653C1164.37 77.3203 1151.79 70.3397 1139.44 62.9695C1138 62.0333 1136.23 61.4265 1134.68 62.5351C1121.93 69.8903 1109.19 77.2754 1096.42 84.6006C1109.77 92.3752 1123.18 100.045 1136.54 107.797C1150.03 100.217 1163.32 92.3152 1176.75 84.653ZM1341.22 87.0348C1344.22 85.1848 1346.9 82.0166 1346.54 78.2716C1346.43 64.7447 1346.6 51.2177 1346.45 37.6908C1334.55 44.4842 1322.73 51.4199 1310.82 58.2058C1309.29 59.1046 1307.63 59.8761 1306.39 61.1719C1306.09 62.6175 1306.12 64.1004 1306.1 65.5535C1306.17 79.4549 1306.06 93.3564 1306.15 107.258C1317.86 100.539 1329.48 93.6934 1341.22 87.0348ZM1177.93 82.9154C1177.94 67.486 1178.1 52.0491 1177.82 36.6122C1164.51 28.8077 1151.1 21.1902 1137.78 13.4081C1137.64 28.89 1137.47 44.3793 1137.79 59.8611C1151.22 67.4635 1164.48 75.3654 1177.93 82.9154ZM1134.62 60.333C1123.16 53.5096 1111.5 47.0457 1100.05 40.2373C1098.64 39.3385 1096.99 38.979 1095.42 38.4622C1095.43 53.2474 1095.4 68.0327 1095.4 82.818C1108.62 75.5976 1121.49 67.7332 1134.62 60.333ZM1093.41 82.8479C1093.55 69.5906 1093.38 56.3334 1093.52 43.0761C1093.86 38.9791 1091.31 35.0468 1087.76 33.1593C1076.19 26.6205 1064.79 19.7972 1053.2 13.2958C1053.36 28.6653 1052.93 44.0573 1053.37 59.4043C1056.2 61.8984 1059.84 63.2691 1062.99 65.3213C1073.12 71.1935 1083.26 77.0282 1093.41 82.8479ZM1051.53 59.5465C1051.6 44.1171 1051.56 28.6803 1051.55 13.2509C1038.12 20.9731 1024.69 28.7177 1011.28 36.4849C1011.04 51.9592 1011.12 67.441 1011.22 82.9154C1024.69 75.1857 1038.18 67.4709 1051.53 59.5465ZM1135.47 58.3706C1135.62 43.4356 1135.52 28.493 1135.47 13.558C1129.57 16.7263 1123.82 20.1791 1118.02 23.5197C1111.07 27.6392 1103.89 31.3766 1097.11 35.7958C1100.85 38.9715 1105.35 40.9789 1109.52 43.4805C1118.17 48.4389 1126.73 53.562 1135.47 58.3706Z" fill="#EF95BA" fill-opacity="0.3"/>
<path d="M1462.16 19.4901C1451.55 25.4746 1441.17 31.8486 1430.43 37.6009C1430.26 24.9428 1430.43 12.2772 1430.4 -0.388367H1432.09C1433.07 4.80969 1432.58 10.1052 1432.65 15.3557C1432.69 21.5798 1432.64 27.7965 1432.64 34.0207C1443.65 27.8414 1454.47 21.3101 1465.5 15.1608C1467.62 13.9474 1469.78 12.5543 1471.01 10.3597C1473.04 7.16901 1472.45 3.20685 1472.5 -0.388367H1475.15C1474.49 2.91473 1473.98 6.59229 1475.74 9.64819C1477.84 13.895 1482.61 15.4455 1486.4 17.7599C1494.9 22.7857 1503.56 27.5343 1512 32.6575V35.5187C1508.5 32.65 1504.37 30.7101 1500.5 28.3957C1494.2 24.6732 1487.76 21.1529 1481.5 17.3405C1479.15 15.9773 1476.66 14.4792 1473.85 14.5242C1469.39 14.277 1465.87 17.5052 1462.16 19.4901Z" fill="#EF95BA" fill-opacity="0.3"/>
</svg>
